_Griffith_Gothic-Ultra_Italic_WebTT.ufo
<glyph name="quotedbl" format="1">
  <advance width="1044.48"/>
  <unicode hex="0022"/>
  <outline>
    <contour>
      <point x="254" y="1475" type="line"/>
      <point x="682" y="1475" type="line"/>
      <point x="412" y="817" type="line"/>
      <point x="197" y="817" type="line"/>
    </contour>
    <contour>
      <point x="760" y="1475" type="line"/>
      <point x="1188" y="1475" type="line"/>
      <point x="918" y="817" type="line"/>
      <point x="702" y="817" type="line"/>
    </contour>
  </outline>
</glyph>
<glyph name="numbersign" format="1">
  <advance width="1372.16"/>
  <unicode hex="0023"/>
  <outline>
    <contour>
      <point x="1243" y="1214" type="line"/>
      <point x="1458" y="1214" type="line"/>
      <point x="1372" y="879" type="line"/>
      <point x="1124" y="879" type="line"/>
      <point x="1028" y="596" type="line"/>
      <point x="1278" y="596" type="line"/>
      <point x="1192" y="260" type="line"/>
      <point x="909" y="260" type="line"/>
      <point x="819" y="0" type="line"/>
      <point x="635" y="0" type="line"/>
      <point x="725" y="260" type="line"/>
      <point x="403" y="260" type="line"/>
      <point x="313" y="0" type="line"/>
      <point x="129" y="0" type="line"/>
      <point x="219" y="260" type="line"/>
      <point x="4" y="260" type="line"/>
      <point x="90" y="596" type="line"/>
      <point x="338" y="596" type="line"/>
      <point x="434" y="879" type="line"/>
      <point x="184" y="879" type="line"/>
      <point x="270" y="1214" type="line"/>
      <point x="553" y="1214" type="line"/>
      <point x="643" y="1475" type="line"/>
      <point x="827" y="1475" type="line"/>
      <point x="737" y="1214" type="line"/>
      <point x="1059" y="1214" type="line"/>
      <point x="1149" y="1475" type="line"/>
      <point x="1333" y="1475" type="line"/>
    </contour>
    <contour>
      <point x="844" y="584" type="line"/>
      <point x="952" y="891" type="line"/>
      <point x="618" y="891" type="line"/>
      <point x="510" y="584" type="line"/>
    </contour>
  </outline>
</glyph>
<glyph name="percent" format="1">
  <advance width="2027.52"/>
  <unicode hex="0025"/>
  <outline>
    <contour>
      <point x="625" y="1489" type="qcurve" smooth="yes"/>
      <point x="782.462686567" y="1489.0"/>
      <point x="979.0" y="1319.92537313"/>
      <point x="979" y="1155" type="qcurve" smooth="yes"/>
      <point x="979.0" y="956.492537313"/>
      <point x="714.850746269" y="580.0"/>
      <point x="485" y="580" type="qcurve" smooth="yes"/>
      <point x="327.537313433" y="580.0"/>
      <point x="131.0" y="748.074626866"/>
      <point x="131" y="913" type="qcurve" smooth="yes"/>
      <point x="131.0" y="1112.25373134"/>
      <point x="395.149253731" y="1489.0"/>
    </contour>
    <contour>
      <point x="506" y="809" type="qcurve" smooth="yes"/>
      <point x="597.791044776" y="809.0"/>
      <point x="688.0" y="1061.65671642"/>
      <point x="688" y="1143" type="qcurve" smooth="yes"/>
      <point x="688.0" y="1198.2238806"/>
      <point x="642.059701493" y="1260.0"/>
      <point x="604" y="1260" type="qcurve" smooth="yes"/>
      <point x="512.208955224" y="1260.0"/>
      <point x="422.0" y="1006.59701493"/>
      <point x="422" y="926" type="qcurve" smooth="yes"/>
      <point x="422.0" y="870.776119403"/>
      <point x="467.940298507" y="809.0"/>
    </contour>
    <contour>
      <point x="1632" y="895" type="qcurve" smooth="yes"/>
      <point x="1789.46268657" y="895.0"/>
      <point x="1987.0" y="725.925373134"/>
      <point x="1987" y="561" type="qcurve" smooth="yes"/>
      <point x="1987.0" y="362.492537313"/>
      <point x="1722.10447761" y="-14.0"/>
      <point x="1493" y="-14" type="qcurve" smooth="yes"/>
      <point x="1335.53731343" y="-14.0"/>
      <point x="1139.0" y="154.074626866"/>
      <point x="1139" y="319" type="qcurve" smooth="yes"/>
      <point x="1139.0" y="518.253731343"/>
      <point x="1402.89552239" y="895.0"/>
    </contour>
    <contour>
      <point x="1513" y="215" type="qcurve" smooth="yes"/>
      <point x="1604.79104478" y="215.0"/>
      <point x="1696.0" y="467.656716418"/>
      <point x="1696" y="549" type="qcurve" smooth="yes"/>
      <point x="1696.0" y="604.223880597"/>
      <point x="1650.05970149" y="666.0"/>
      <point x="1612" y="666" type="qcurve" smooth="yes"/>
      <point x="1520.20895522" y="666.0"/>
      <point x="1430.0" y="412.597014925"/>
      <point x="1430" y="332" type="qcurve" smooth="yes"/>
      <point x="1430.0" y="276.776119403"/>
      <point x="1474.94029851" y="215.0"/>
    </contour>
    <contour>
      <point x="1518" y="1475" type="line"/>
      <point x="1886" y="1475" type="line"/>
      <point x="1139" y="702" type="line"/>
      <point x="600" y="0" type="line"/>
      <point x="231" y="0" type="line"/>
      <point x="979" y="772" type="line"/>
    </contour>
  </outline>
</glyph>
<glyph name="quotesingle" format="1">
  <advance width="548.864"/>
  <unicode hex="0027"/>
  <outline>
    <contour>
      <point x="254" y="1475" type="line"/>
      <point x="692" y="1475" type="line"/>
      <point x="422" y="817" type="line"/>
      <point x="197" y="817" type="line"/>
    </contour>
  </outline>
</glyph>
<glyph name="parenleft" format="1">
  <advance width="841.728"/>
  <unicode hex="0028"/>
  <outline>
    <contour>
      <point x="682" y="1505" type="qcurve"/>
      <point x="1077" y="1505" type="line"/>
      <point x="727.0" y="1223.65671642"/>
      <point x="498.0" y="716.731343284"/>
      <point x="498" y="463" type="qcurve" smooth="yes"/>
      <point x="498.0" y="271.955223881"/>
      <point x="574.402985075" y="-29.328358209"/>
      <point x="655" y="-195" type="qcurve"/>
      <point x="319" y="-195" type="line"/>
      <point x="212.28358209" y="-52.4626865672"/>
      <point x="68.0" y="294.328358209"/>
      <point x="68" y="510" type="qcurve" smooth="yes"/>
      <point x="68.0" y="792.835820896"/>
      <point x="371.552238806" y="1309.47761194"/>
    </contour>
  </outline>
</glyph>
<glyph name="plus" format="1">
  <advance width="1228.8"/>
  <unicode hex="002B"/>
  <outline>
    <contour>
      <point x="1204" y="899" type="line"/>
      <point x="1204" y="555" type="line"/>
      <point x="831" y="555" type="line"/>
      <point x="831" y="180" type="line"/>
      <point x="483" y="180" type="line"/>
      <point x="483" y="555" type="line"/>
      <point x="111" y="555" type="line"/>
      <point x="111" y="899" type="line"/>
      <point x="483" y="899" type="line"/>
      <point x="483" y="1274" type="line"/>
      <point x="831" y="1274" type="line"/>
      <point x="831" y="899" type="line"/>
    </contour>
  </outline>
</glyph>
<glyph name="hyphen" format="1">
  <advance width="729.088"/>
  <unicode hex="002D"/>
  <unicode hex="2010"/>
  <unicode hex="2011"/>
  <outline>
    <contour>
      <point x="117" y="778" type="line"/>
      <point x="723" y="778" type="line"/>
      <point x="635" y="422" type="line"/>
      <point x="29" y="422" type="line"/>
    </contour>
  </outline>
</glyph>
<glyph name="period" format="1">
  <advance width="548.864"/>
  <unicode hex="002E"/>
  <outline>
    <contour>
      <point x="195" y="436" type="qcurve" smooth="yes"/>
      <point x="291.268656716" y="436.0"/>
      <point x="420.0" y="307.268656716"/>
      <point x="420" y="211" type="qcurve" smooth="yes"/>
      <point x="420.0" y="114.731343284"/>
      <point x="291.268656716" y="-14.0"/>
      <point x="195" y="-14" type="qcurve" smooth="yes"/>
      <point x="98.7313432836" y="-14.0"/>
      <point x="-31.0" y="114.731343284"/>
      <point x="-31" y="211" type="qcurve" smooth="yes"/>
      <point x="-31.0" y="307.268656716"/>
      <point x="98.7313432836" y="436.0"/>
    </contour>
  </outline>
</glyph>
<glyph name="slash" format="1">
  <advance width="974.848"/>
  <unicode hex="002F"/>
  <outline>
    <contour>
      <point x="795" y="1505" type="line"/>
      <point x="1196" y="1505" type="line"/>
      <point x="168" y="-195" type="line"/>
      <point x="-233" y="-195" type="line"/>
    </contour>
  </outline>
</glyph>
<glyph name="two" format="1">
  <advance width="1169.408"/>
  <unicode hex="0032"/>
  <outline>
    <contour>
      <point x="793" y="1499" type="qcurve" smooth="yes"/>
      <point x="1001.95522388" y="1499.0"/>
      <point x="1233.0" y="1297.92537313"/>
      <point x="1233" y="1133" type="qcurve" smooth="yes"/>
      <point x="1233.0" y="962.850746269"/>
      <point x="1029.6119403" y="698.149253731"/>
      <point x="752" y="528" type="qcurve" smooth="yes"/>
      <point x="626.626865672" y="451.880597015"/>
      <point x="487.059701493" y="356.76119403"/>
      <point x="449" y="309" type="qcurve"/>
      <point x="1061" y="309" type="line"/>
      <point x="983" y="0" type="line"/>
      <point x="-86" y="0" type="line"/>
      <point x="-23" y="256" type="line"/>
      <point x="61.328358209" y="385.850746269"/>
      <point x="320.955223881" y="621.358208955"/>
      <point x="512" y="743" type="qcurve" smooth="yes"/>
      <point x="697.074626866" y="860.910447761"/>
      <point x="821.0" y="1010.88059701"/>
      <point x="821" y="1087" type="qcurve" smooth="yes"/>
      <point x="821.0" y="1128.79104478"/>
      <point x="769.0" y="1184.0"/>
      <point x="719" y="1184" type="qcurve" smooth="yes"/>
      <point x="666.76119403" y="1184.0"/>
      <point x="544.074626866" y="1087.17910448"/>
      <point x="459" y="973" type="qcurve"/>
      <point x="154" y="1161" type="line"/>
      <point x="292.805970149" y="1338.6119403"/>
      <point x="592.253731343" y="1499.0"/>
    </contour>
  </outline>
</glyph>
<glyph name="three" format="1">
  <advance width="1148.928"/>
  <unicode hex="0033"/>
  <outline>
    <contour>
      <point x="748" y="1499" type="qcurve" smooth="yes"/>
      <point x="961.432835821" y="1499.0"/>
      <point x="1182.0" y="1323.25373134"/>
      <point x="1182" y="1174" type="qcurve" smooth="yes"/>
      <point x="1182.0" y="1038.92537313"/>
      <point x="981.865671642" y="865.746268657"/>
      <point x="805" y="815" type="qcurve"/>
      <point x="805" y="807" type="line"/>
      <point x="948.28358209" y="791.328358209"/>
      <point x="1110.0" y="649.313432836"/>
      <point x="1110" y="512" type="qcurve" smooth="yes"/>
      <point x="1110.0" y="275.432835821"/>
      <point x="624.611940299" y="-12.0"/>
      <point x="197" y="-12" type="qcurve" smooth="yes"/>
      <point x="132.820895522" y="-12.0"/>
      <point x="-24.3582089552" y="-3.46268656716"/>
      <point x="-96" y="4" type="qcurve"/>
      <point x="-31" y="295" type="line"/>
      <point x="22.7313432836" y="292.014925373"/>
      <point x="112.71641791" y="287.0"/>
      <point x="156" y="287" type="qcurve" smooth="yes"/>
      <point x="429.134328358" y="287.0"/>
      <point x="674.0" y="409.223880597"/>
      <point x="674" y="504" type="qcurve" smooth="yes"/>
      <point x="674.0" y="563.701492537"/>
      <point x="588.656716418" y="629.0"/>
      <point x="520" y="629" type="qcurve" smooth="yes"/>
      <point x="483.432835821" y="629.0"/>
      <point x="400.776119403" y="617.701492537"/>
      <point x="356" y="608" type="qcurve"/>
      <point x="315" y="854" type="line"/>
      <point x="600.820895522" y="919.671641791"/>
      <point x="764.0" y="1038.32835821"/>
      <point x="764" y="1104" type="qcurve" smooth="yes"/>
      <point x="764.0" y="1148.02985075"/>
      <point x="708.194029851" y="1196.0"/>
      <point x="647" y="1196" type="qcurve" smooth="yes"/>
      <point x="581.328358209" y="1196.0"/>
      <point x="439.820895522" y="1138.70149254"/>
      <point x="354" y="1079" type="qcurve"/>
      <point x="180" y="1296" type="line"/>
      <point x="322.537313433" y="1403.46268657"/>
      <point x="606.955223881" y="1499.0"/>
    </contour>
  </outline>
</glyph>
<glyph name="four" format="1">
  <advance width="1312.768"/>
  <unicode hex="0034"/>
  <outline>
    <contour>
      <point x="809" y="1475" type="line"/>
      <point x="1325" y="1475" type="line"/>
      <point x="1098" y="563" type="line"/>
      <point x="1290" y="563" type="line"/>
      <point x="1231" y="330" type="line"/>
      <point x="1038" y="330" type="line"/>
      <point x="956" y="0" type="line"/>
      <point x="545" y="0" type="line"/>
      <point x="627" y="330" type="line"/>
      <point x="-20" y="330" type="line"/>
      <point x="57" y="639" type="line"/>
    </contour>
    <contour>
      <point x="686" y="563" type="line"/>
      <point x="825" y="1120" type="line"/>
      <point x="813" y="1120" type="line"/>
      <point x="322" y="575" type="line"/>
      <point x="322" y="563" type="line"/>
    </contour>
  </outline>
</glyph>
<glyph name="seven" format="1">
  <advance width="1171.456"/>
  <unicode hex="0037"/>
  <outline>
    <contour>
      <point x="266" y="1475" type="line"/>
      <point x="1370" y="1475" type="line"/>
      <point x="1309" y="1235" type="line"/>
      <point x="1076.1641791" y="996.194029851"/>
      <point x="628.970149254" y="344.029850746"/>
      <point x="473" y="0" type="qcurve"/>
      <point x="6" y="0" type="line"/>
      <point x="170.925373134" y="325.373134328"/>
      <point x="590.880597015" y="898.671641791"/>
      <point x="817" y="1133" type="qcurve"/>
      <point x="180" y="1133" type="line"/>
    </contour>
  </outline>
</glyph>
<glyph name="nine" format="1">
  <advance width="1271.808"/>
  <unicode hex="0039"/>
  <outline>
    <contour>
      <point x="782" y="1499" type="qcurve" smooth="yes"/>
      <point x="1017.82089552" y="1499.0"/>
      <point x="1311.0" y="1292.52238806"/>
      <point x="1311" y="1047" type="qcurve" smooth="yes"/>
      <point x="1311.0" y="735.059701493"/>
      <point x="944.119402985" y="215.671641791"/>
      <point x="618" y="0" type="qcurve"/>
      <point x="33" y="0" type="line"/>
      <point x="330.76119403" y="161.940298507"/>
      <point x="755.164179104" y="475.611940299"/>
      <point x="838" y="598" type="qcurve"/>
      <point x="825" y="598" type="line"/>
      <point x="757.835820896" y="550.985074627"/>
      <point x="593.76119403" y="494.0"/>
      <point x="496" y="494" type="qcurve" smooth="yes"/>
      <point x="337.044776119" y="494.0"/>
      <point x="133.0" y="678.925373134"/>
      <point x="133" y="864" type="qcurve" smooth="yes"/>
      <point x="133.0" y="1122.20895522"/>
      <point x="490.208955224" y="1499.0"/>
    </contour>
    <contour>
      <point x="700" y="774" type="qcurve" smooth="yes"/>
      <point x="791.791044776" y="774.0"/>
      <point x="907.0" y="949.567164179"/>
      <point x="907" y="1063" type="qcurve" smooth="yes"/>
      <point x="907.0" y="1136.13432836"/>
      <point x="832.179104478" y="1217.0"/>
      <point x="768" y="1217" type="qcurve" smooth="yes"/>
      <point x="676.208955224" y="1217.0"/>
      <point x="561.0" y="1040.68656716"/>
      <point x="561" y="928" type="qcurve" smooth="yes"/>
      <point x="561.0" y="854.119402985"/>
      <point x="635.820895522" y="774.0"/>
    </contour>
  </outline>
</glyph>
<glyph name="semicolon" format="1">
  <advance width="569.344"/>
  <unicode hex="003B"/>
  <outline>
    <contour>
      <point x="381" y="1124" type="qcurve" smooth="yes"/>
      <point x="477.268656716" y="1124.0"/>
      <point x="606.0" y="995.268656716"/>
      <point x="606" y="899" type="qcurve" smooth="yes"/>
      <point x="606.0" y="802.731343284"/>
      <point x="477.268656716" y="674.0"/>
      <point x="381" y="674" type="qcurve" smooth="yes"/>
      <point x="284.731343284" y="674.0"/>
      <point x="156.0" y="802.731343284"/>
      <point x="156" y="899" type="qcurve" smooth="yes"/>
      <point x="156.0" y="995.268656716"/>
      <point x="284.731343284" y="1124.0"/>
    </contour>
    <contour>
      <point x="57" y="426" type="line"/>
      <point x="504" y="426" type="line"/>
      <point x="78" y="-231" type="line"/>
      <point x="-156" y="-231" type="line"/>
    </contour>
  </outline>
</glyph>
<glyph name="less" format="1">
  <advance width="1228.8"/>
  <unicode hex="003C"/>
  <outline>
    <contour>
      <point x="1190" y="483" type="line"/>
      <point x="1190" y="121" type="line"/>
      <point x="117" y="563" type="line"/>
      <point x="117" y="891" type="line"/>
      <point x="1190" y="1333" type="line"/>
      <point x="1190" y="971" type="line"/>
      <point x="512" y="727" type="line"/>
    </contour>
  </outline>
</glyph>
<glyph name="equal" format="1">
  <advance width="1228.8"/>
  <unicode hex="003D"/>
  <outline>
    <contour>
      <point x="1167" y="621" type="line"/>
      <point x="1167" y="276" type="line"/>
      <point x="147" y="276" type="line"/>
      <point x="147" y="621" type="line"/>
    </contour>
    <contour>
      <point x="1167" y="1178" type="line"/>
      <point x="1167" y="834" type="line"/>
      <point x="147" y="834" type="line"/>
      <point x="147" y="1178" type="line"/>
    </contour>
  </outline>
</glyph>
<glyph name="greater" format="1">
  <advance width="1228.8"/>
  <unicode hex="003E"/>
  <outline>
    <contour>
      <point x="1198" y="891" type="line"/>
      <point x="1198" y="563" type="line"/>
      <point x="125" y="121" type="line"/>
      <point x="125" y="483" type="line"/>
      <point x="803" y="727" type="line"/>
      <point x="125" y="971" type="line"/>
      <point x="125" y="1333" type="line"/>
    </contour>
  </outline>
</glyph>
<glyph name="question" format="1">
  <advance width="1089.536"/>
  <unicode hex="003F"/>
  <outline>
    <contour>
      <point x="719" y="1499" type="qcurve" smooth="yes"/>
      <point x="924.970149254" y="1499.0"/>
      <point x="1188.0" y="1305.44776119"/>
      <point x="1188" y="1145" type="qcurve" smooth="yes"/>
      <point x="1188.0" y="973.358208955"/>
      <point x="1001.46268657" y="759.134328358"/>
      <point x="844" y="686" type="qcurve" smooth="yes"/>
      <point x="735.044776119" y="635.253731343"/>
      <point x="638.626865672" y="570.23880597"/>
      <point x="614" y="518" type="qcurve"/>
      <point x="340" y="518" type="line"/>
      <point x="345.970149254" y="662.029850746"/>
      <point x="460.686567164" y="823.358208955"/>
      <point x="598" y="895" type="qcurve" smooth="yes"/>
      <point x="679.343283582" y="937.537313433"/>
      <point x="772.0" y="1030.01492537"/>
      <point x="772" y="1083" type="qcurve" smooth="yes"/>
      <point x="772.0" y="1129.26865672"/>
      <point x="723.014925373" y="1182.0"/>
      <point x="676" y="1182" type="qcurve" smooth="yes"/>
      <point x="628.23880597" y="1182.0"/>
      <point x="510.865671642" y="1092.70149254"/>
      <point x="434" y="983" type="qcurve"/>
      <point x="154" y="1153" type="line"/>
      <point x="263.701492537" y="1329.11940299"/>
      <point x="549.597014925" y="1499.0"/>
    </contour>
    <contour>
      <point x="401" y="416" type="qcurve" smooth="yes"/>
      <point x="492.791044776" y="416.0"/>
      <point x="616.0" y="292.791044776"/>
      <point x="616" y="201" type="qcurve" smooth="yes"/>
      <point x="616.0" y="109.208955224"/>
      <point x="492.791044776" y="-14.0"/>
      <point x="401" y="-14" type="qcurve" smooth="yes"/>
      <point x="309.955223881" y="-14.0"/>
      <point x="186.0" y="109.208955224"/>
      <point x="186" y="201" type="qcurve" smooth="yes"/>
      <point x="186.0" y="292.791044776"/>
      <point x="309.955223881" y="416.0"/>
    </contour>
  </outline>
</glyph>
<glyph name="at" format="1">
  <advance width="1966.08"/>
  <unicode hex="0040"/>
  <outline>
    <contour>
      <point x="1024" y="1499" type="qcurve" smooth="yes"/>
      <point x="1388.92537313" y="1499.0"/>
      <point x="1892.0" y="1050.65671642"/>
      <point x="1892" y="682" type="qcurve" smooth="yes"/>
      <point x="1892.0" y="377.52238806"/>
      <point x="1583.1641791" y="43.0"/>
      <point x="1366" y="43" type="qcurve" smooth="yes"/>
      <point x="1228.68656716" y="43.0"/>
      <point x="1081.62686567" y="174.23880597"/>
      <point x="1057" y="272" type="qcurve"/>
      <point x="1049" y="272" type="line"/>
      <point x="987.805970149" y="168.268656716"/>
      <point x="810.253731343" y="43.0"/>
      <point x="711" y="43" type="qcurve" smooth="yes"/>
      <point x="591.597014925" y="43.0"/>
      <point x="467.0" y="216.044776119"/>
      <point x="467" y="375" type="qcurve" smooth="yes"/>
      <point x="467.0" y="586.940298507"/>
      <point x="651.970149254" y="1069.0"/>
      <point x="846" y="1069" type="qcurve" smooth="yes"/>
      <point x="951.223880597" y="1069.0"/>
      <point x="1063.43283582" y="961.313432836"/>
      <point x="1100" y="874" type="qcurve"/>
      <point x="1108" y="874" type="line"/>
      <point x="1141" y="1071" type="line"/>
      <point x="1509" y="1026" type="line"/>
      <point x="1389" y="352" type="line" smooth="yes"/>
      <point x="1373.32835821" y="266.925373134"/>
      <point x="1427.8358209" y="172.0"/>
      <point x="1495" y="172" type="qcurve" smooth="yes"/>
      <point x="1615.89552239" y="172.0"/>
      <point x="1792.0" y="463.820895522"/>
      <point x="1792" y="678" type="qcurve" smooth="yes"/>
      <point x="1792.0" y="1015.31343284"/>
      <point x="1359.04477612" y="1413.0"/>
      <point x="1018" y="1413" type="qcurve" smooth="yes"/>
      <point x="663.52238806" y="1413.0"/>
      <point x="176.0" y="905.447761194"/>
      <point x="176" y="545" type="qcurve" smooth="yes"/>
      <point x="176.0" y="164.402985075"/>
      <point x="628.104477612" y="-307.0"/>
      <point x="999" y="-307" type="qcurve" smooth="yes"/>
      <point x="1182.58208955" y="-307.0"/>
      <point x="1462.67164179" y="-234.626865672"/>
      <point x="1597" y="-160" type="qcurve"/>
      <point x="1640" y="-233" type="line"/>
      <point x="1498.20895522" y="-309.865671642"/>
      <point x="1194.25373134" y="-393.0"/>
      <point x="995" y="-393" type="qcurve" smooth="yes"/>
      <point x="582.313432836" y="-393.0"/>
      <point x="74.0" y="122.850746269"/>
      <point x="74" y="543" type="qcurve" smooth="yes"/>
      <point x="74.0" y="945.985074627"/>
      <point x="635.940298507" y="1499.0"/>
    </contour>
    <contour>
      <point x="909" y="262" type="qcurve" smooth="yes"/>
      <point x="971.686567164" y="262.0"/>
      <point x="1067.0" y="536.343283582"/>
      <point x="1067" y="705" type="qcurve" smooth="yes"/>
      <point x="1067.0" y="762.462686567"/>
      <point x="1032.07462687" y="823.0"/>
      <point x="997" y="823" type="qcurve" smooth="yes"/>
      <point x="934.313432836" y="823.0"/>
      <point x="840.0" y="548.910447761"/>
      <point x="840" y="381" type="qcurve" smooth="yes"/>
      <point x="840.0" y="322.791044776"/>
      <point x="873.925373134" y="262.0"/>
    </contour>
  </outline>
</glyph>
<glyph name="B" format="1">
  <advance width="1290.24"/>
  <unicode hex="0042"/>
  <outline>
    <contour>
      <point x="866" y="1475" type="line" smooth="yes"/>
      <point x="1110.7761194" y="1475.0"/>
      <point x="1352.0" y="1293.47761194"/>
      <point x="1352" y="1139" type="qcurve" smooth="yes"/>
      <point x="1352.0" y="990.492537313"/>
      <point x="1156.80597015" y="806.537313433"/>
      <point x="1018" y="764" type="qcurve"/>
      <point x="1018" y="756" type="line"/>
      <point x="1112.7761194" y="714.208955224"/>
      <point x="1227.0" y="574.671641791"/>
      <point x="1227" y="459" type="qcurve" smooth="yes"/>
      <point x="1227.0" y="266.462686567"/>
      <point x="904.447761194" y="0.0"/>
      <point x="594" y="0" type="qcurve" smooth="yes"/>
      <point x="-53" y="0" type="line"/>
      <point x="315" y="1475" type="line"/>
    </contour>
    <contour>
      <point x="582" y="307" type="line" smooth="yes"/>
      <point x="697.671641791" y="307.0"/>
      <point x="827.0" y="406.402985075"/>
      <point x="827" y="487" type="qcurve" smooth="yes"/>
      <point x="827.0" y="557.895522388"/>
      <point x="727.268656716" y="627.0"/>
      <point x="631" y="627" type="qcurve" smooth="yes"/>
      <point x="526" y="627" type="line"/>
      <point x="446" y="307" type="line"/>
    </contour>
    <contour>
      <point x="715" y="901" type="line" smooth="yes"/>
      <point x="808.28358209" y="901.0"/>
      <point x="924.0" y="979.626865672"/>
      <point x="924" y="1055" type="qcurve" smooth="yes"/>
      <point x="924.0" y="1110.97014925"/>
      <point x="840.149253731" y="1167.0"/>
      <point x="770" y="1167" type="qcurve" smooth="yes"/>
      <point x="662" y="1167" type="line"/>
      <point x="596" y="901" type="line"/>
    </contour>
  </outline>
</glyph>
<glyph name="C" format="1">
  <advance width="1277.952"/>
  <unicode hex="0043"/>
  <outline>
    <contour>
      <point x="836" y="1499" type="qcurve" smooth="yes"/>
      <point x="1120.32835821" y="1499.0"/>
      <point x="1358.6119403" y="1195.79104478"/>
      <point x="1331" y="954" type="qcurve"/>
      <point x="895" y="879" type="line"/>
      <point x="915.149253731" y="1032.73134328"/>
      <point x="867.149253731" y="1167.0"/>
      <point x="797" y="1167" type="qcurve" smooth="yes"/>
      <point x="732.820895522" y="1167.0"/>
      <point x="631.492537313" y="988.552238806"/>
      <point x="580" y="799" type="qcurve" smooth="yes"/>
      <point x="546.417910448" y="678.104477612"/>
      <point x="520.0" y="507.47761194"/>
      <point x="520" y="453" type="qcurve" smooth="yes"/>
      <point x="520" y="444" type="line" smooth="yes"/>
      <point x="520.0" y="381.313432836"/>
      <point x="581.23880597" y="307.0"/>
      <point x="629" y="307" type="qcurve" smooth="yes"/>
      <point x="691.686567164" y="307.0"/>
      <point x="783.253731343" y="427.23880597"/>
      <point x="834" y="575" type="qcurve"/>
      <point x="1227" y="461" type="line"/>
      <point x="1126.25373134" y="208.76119403"/>
      <point x="839.253731343" y="-25.0"/>
      <point x="590" y="-25" type="qcurve" smooth="yes"/>
      <point x="362.388059701" y="-25.0"/>
      <point x="78.0" y="225.686567164"/>
      <point x="78" y="463" type="qcurve" smooth="yes"/>
      <point x="78" y="473" type="line" smooth="yes"/>
      <point x="78.0" y="525.23880597"/>
      <point x="96.8208955224" y="702.805970149"/>
      <point x="111" y="764" type="qcurve" smooth="yes"/>
      <point x="197.567164179" y="1153.55223881"/>
      <point x="547.194029851" y="1499.0"/>
    </contour>
  </outline>
</glyph>
<glyph name="D" format="1">
  <advance width="1323.008"/>
  <unicode hex="0044"/>
  <outline>
    <contour>
      <point x="1350" y="1004" type="qcurve" smooth="yes"/>
      <point x="1350" y="995" type="line" smooth="yes"/>
      <point x="1350.0" y="939.029850746"/>
      <point x="1334.91044776" y="816.850746269"/>
      <point x="1317" y="737" type="qcurve" smooth="yes"/>
      <point x="1226.70149254" y="342.970149254"/>
      <point x="858.029850746" y="0.0"/>
      <point x="514" y="0" type="qcurve" smooth="yes"/>
      <point x="-53" y="0" type="line"/>
      <point x="315" y="1475" type="line"/>
      <point x="801" y="1475" type="line" smooth="yes"/>
      <point x="1068.1641791" y="1475.0"/>
      <point x="1350.0" y="1240.56716418"/>
    </contour>
    <contour>
      <point x="858" y="737" type="qcurve" smooth="yes"/>
      <point x="873.671641791" y="795.208955224"/>
      <point x="889.0" y="915.746268657"/>
      <point x="889" y="965" type="qcurve" smooth="yes"/>
      <point x="889" y="977" type="line" smooth="yes"/>
      <point x="889.0" y="1051.62686567"/>
      <point x="815.358208955" y="1143.0"/>
      <point x="737" y="1143" type="qcurve" smooth="yes"/>
      <point x="664" y="1143" type="line"/>
      <point x="463" y="332" type="line"/>
      <point x="541" y="332" type="line" smooth="yes"/>
      <point x="661.149253731" y="332.0"/>
      <point x="796.805970149" y="506.402985075"/>
    </contour>
  </outline>
</glyph>
<glyph name="E" format="1">
  <advance width="1153.024"/>
  <unicode hex="0045"/>
  <outline>
    <contour>
      <point x="315" y="1475" type="line"/>
      <point x="1311" y="1475" type="line"/>
      <point x="1227" y="1135" type="line"/>
      <point x="666" y="1135" type="line"/>
      <point x="610" y="915" type="line"/>
      <point x="991" y="915" type="line"/>
      <point x="911" y="596" type="line"/>
      <point x="530" y="596" type="line"/>
      <point x="467" y="340" type="line"/>
      <point x="1053" y="340" type="line"/>
      <point x="967" y="0" type="line"/>
      <point x="-53" y="0" type="line"/>
    </contour>
  </outline>
</glyph>
<glyph name="F" format="1">
  <advance width="1097.728"/>
  <unicode hex="0046"/>
  <outline>
    <contour>
      <point x="315" y="1475" type="line"/>
      <point x="1290" y="1475" type="line"/>
      <point x="1204" y="1135" type="line"/>
      <point x="672" y="1135" type="line"/>
      <point x="606" y="874" type="line"/>
      <point x="948" y="874" type="line"/>
      <point x="866" y="545" type="line"/>
      <point x="524" y="545" type="line"/>
      <point x="389" y="0" type="line"/>
      <point x="-53" y="0" type="line"/>
    </contour>
  </outline>
</glyph>
<glyph name="G" format="1">
  <advance width="1363.968"/>
  <unicode hex="0047"/>
  <outline>
    <contour>
      <point x="846" y="1499" type="qcurve" smooth="yes"/>
      <point x="1139.28358209" y="1499.0"/>
      <point x="1380.11940299" y="1195.79104478"/>
      <point x="1354" y="954" type="qcurve"/>
      <point x="915" y="879" type="line"/>
      <point x="936.641791045" y="1032.73134328"/>
      <point x="883.119402985" y="1167.0"/>
      <point x="807" y="1167" type="qcurve" smooth="yes"/>
      <point x="732.373134328" y="1167.0"/>
      <point x="631.492537313" y="988.552238806"/>
      <point x="580" y="799" type="qcurve" smooth="yes"/>
      <point x="546.417910448" y="678.104477612"/>
      <point x="520.0" y="506.492537313"/>
      <point x="520" y="455" type="qcurve" smooth="yes"/>
      <point x="520" y="446" type="line" smooth="yes"/>
      <point x="520.0" y="381.820895522"/>
      <point x="583.776119403" y="307.0"/>
      <point x="639" y="307" type="qcurve" smooth="yes"/>
      <point x="697.208955224" y="307.0"/>
      <point x="812.47761194" y="419.044776119"/>
      <point x="858" y="578" type="qcurve"/>
      <point x="686" y="578" type="line"/>
      <point x="725" y="731" type="line"/>
      <point x="1333" y="731" type="line"/>
      <point x="1149" y="-6" type="line"/>
      <point x="997" y="-6" type="line"/>
      <point x="987" y="201" type="line"/>
      <point x="977" y="201" type="line"/>
      <point x="898.641791045" y="90.552238806"/>
      <point x="694.343283582" y="-25.0"/>
      <point x="563" y="-25" type="qcurve" smooth="yes"/>
      <point x="342.850746269" y="-25.0"/>
      <point x="78.0" y="227.179104478"/>
      <point x="78" y="463" type="qcurve" smooth="yes"/>
      <point x="78" y="473" type="line" smooth="yes"/>
      <point x="78.0" y="525.23880597"/>
      <point x="96.8208955224" y="702.805970149"/>
      <point x="111" y="764" type="qcurve" smooth="yes"/>
      <point x="197.567164179" y="1153.55223881"/>
      <point x="547.492537313" y="1499.0"/>
    </contour>
  </outline>
</glyph>
<glyph name="L" format="1">
  <advance width="1097.728"/>
  <unicode hex="004C"/>
  <outline>
    <contour>
      <point x="481" y="369" type="line"/>
      <point x="1014" y="369" type="line"/>
      <point x="922" y="0" type="line"/>
      <point x="-53" y="0" type="line"/>
      <point x="315" y="1475" type="line"/>
      <point x="758" y="1475" type="line"/>
    </contour>
  </outline>
</glyph>
<glyph name="V" format="1">
  <advance width="1404.928"/>
  <unicode hex="0056"/>
  <outline>
    <contour>
      <point x="1159" y="1475" type="line"/>
      <point x="1618" y="1475" type="line"/>
      <point x="803" y="-8" type="line"/>
      <point x="319" y="-8" type="line"/>
      <point x="246" y="1475" type="line"/>
      <point x="692" y="1475" type="line"/>
      <point x="672" y="473" type="line"/>
      <point x="680" y="473" type="line"/>
    </contour>
  </outline>
</glyph>
<glyph name="W" format="1">
  <advance width="2052.096"/>
  <unicode hex="0057"/>
  <outline>
    <contour>
      <point x="1800" y="1475" type="line"/>
      <point x="2259" y="1475" type="line"/>
      <point x="1544" y="-8" type="line"/>
      <point x="1081" y="-8" type="line"/>
      <point x="1116" y="905" type="line"/>
      <point x="1108" y="905" type="line"/>
      <point x="688" y="-8" type="line"/>
      <point x="225" y="-8" type="line"/>
      <point x="252" y="1475" type="line"/>
      <point x="698" y="1475" type="line"/>
      <point x="602" y="535" type="line"/>
      <point x="610" y="535" type="line"/>
      <point x="1026" y="1475" type="line"/>
      <point x="1473" y="1475" type="line"/>
      <point x="1417" y="535" type="line"/>
      <point x="1425" y="535" type="line"/>
    </contour>
  </outline>
</glyph>
<glyph name="Y" format="1">
  <advance width="1343.488"/>
  <unicode hex="0059"/>
  <outline>
    <contour>
      <point x="1135" y="1475" type="line"/>
      <point x="1567" y="1475" type="line"/>
      <point x="901" y="590" type="line"/>
      <point x="754" y="0" type="line"/>
      <point x="311" y="0" type="line"/>
      <point x="457" y="582" type="line"/>
      <point x="236" y="1475" type="line"/>
      <point x="709" y="1475" type="line"/>
      <point x="799" y="983" type="line"/>
    </contour>
  </outline>
</glyph>
<glyph name="Z" format="1">
  <advance width="1183.744"/>
  <unicode hex="005A"/>
  <outline>
    <contour>
      <point x="315" y="1475" type="line"/>
      <point x="1356" y="1475" type="line"/>
      <point x="1280" y="1176" type="line"/>
      <point x="506" y="340" type="line"/>
      <point x="1073" y="340" type="line"/>
      <point x="987" y="0" type="line"/>
      <point x="-84" y="0" type="line"/>
      <point x="-8" y="299" type="line"/>
      <point x="766" y="1135" type="line"/>
      <point x="229" y="1135" type="line"/>
    </contour>
  </outline>
</glyph>
<glyph name="bracketleft" format="1">
  <advance width="860.16"/>
  <unicode hex="005B"/>
  <outline>
    <contour>
      <point x="342" y="1497" type="line"/>
      <point x="1047" y="1475" type="line"/>
      <point x="1008" y="1321" type="line"/>
      <point x="688" y="1331" type="line"/>
      <point x="352" y="-20" type="line"/>
      <point x="676" y="-10" type="line"/>
      <point x="637" y="-164" type="line"/>
      <point x="-76" y="-186" type="line"/>
    </contour>
  </outline>
</glyph>
<glyph name="m" format="1">
  <advance width="1755.136"/>
  <unicode hex="006D"/>
  <outline>
    <contour>
      <point x="1552" y="1124" type="qcurve" smooth="yes"/>
      <point x="1654.98507463" y="1124.0"/>
      <point x="1763.0" y="1012.49253731"/>
      <point x="1763" y="911" type="qcurve" smooth="yes"/>
      <point x="1763.0" y="885.626865672"/>
      <point x="1754.46268657" y="824.582089552"/>
      <point x="1747" y="791" type="qcurve" smooth="yes"/>
      <point x="1550" y="0" type="line"/>
      <point x="1133" y="0" type="line"/>
      <point x="1305" y="686" type="line" smooth="yes"/>
      <point x="1309.47761194" y="704.656716418"/>
      <point x="1313.0" y="735.820895522"/>
      <point x="1313" y="750" type="qcurve" smooth="yes"/>
      <point x="1313.0" y="782.089552239"/>
      <point x="1275.05970149" y="815.0"/>
      <point x="1237" y="815" type="qcurve" smooth="yes"/>
      <point x="1216.85074627" y="815.0"/>
      <point x="1177.11940299" y="802.940298507"/>
      <point x="1151" y="791" type="qcurve"/>
      <point x="954" y="0" type="line"/>
      <point x="537" y="0" type="line"/>
      <point x="709" y="686" type="line" smooth="yes"/>
      <point x="713.47761194" y="704.656716418"/>
      <point x="717.0" y="735.820895522"/>
      <point x="717" y="750" type="qcurve" smooth="yes"/>
      <point x="717.0" y="782.089552239"/>
      <point x="679.059701493" y="815.0"/>
      <point x="641" y="815" type="qcurve" smooth="yes"/>
      <point x="620.850746269" y="815.0"/>
      <point x="581.119402985" y="802.940298507"/>
      <point x="555" y="791" type="qcurve"/>
      <point x="358" y="0" type="line"/>
      <point x="-59" y="0" type="line"/>
      <point x="209" y="1077" type="line"/>
      <point x="639" y="1126" type="line"/>
      <point x="580" y="885" type="line"/>
      <point x="588" y="885" type="line"/>
      <point x="702.179104478" y="1014.85074627"/>
      <point x="870.925373134" y="1124.0"/>
      <point x="956" y="1124" type="qcurve" smooth="yes"/>
      <point x="1058.98507463" y="1124.0"/>
      <point x="1167.0" y="1012.49253731"/>
      <point x="1167" y="911" type="qcurve" smooth="yes"/>
      <point x="1167.0" y="905.029850746"/>
      <point x="1166.49253731" y="890.970149254"/>
      <point x="1165" y="885" type="qcurve"/>
      <point x="1180" y="885" type="line"/>
      <point x="1294.17910448" y="1014.85074627"/>
      <point x="1466.92537313" y="1124.0"/>
    </contour>
  </outline>
</glyph>
<glyph name="o" format="1">
  <advance width="1122.304"/>
  <unicode hex="006F"/>
  <outline>
    <contour>
      <point x="1098" y="729" type="qcurve" smooth="yes"/>
      <point x="1098" y="725" type="line" smooth="yes"/>
      <point x="1098.0" y="683.955223881"/>
      <point x="1078.43283582" y="564.71641791"/>
      <point x="1065" y="508" type="qcurve" smooth="yes"/>
      <point x="999.328358209" y="248.298507463"/>
      <point x="708.28358209" y="-20.0"/>
      <point x="465" y="-20" type="qcurve" smooth="yes"/>
      <point x="252.313432836" y="-20.0"/>
      <point x="25.0" y="183.985074627"/>
      <point x="25" y="381" type="qcurve" smooth="yes"/>
      <point x="25" y="385" type="line" smooth="yes"/>
      <point x="25.0" y="426.044776119"/>
      <point x="43.5671641791" y="545.28358209"/>
      <point x="57" y="602" type="qcurve" smooth="yes"/>
      <point x="122.671641791" y="861.701492537"/>
      <point x="414.462686567" y="1130.0"/>
      <point x="657" y="1130" type="qcurve" smooth="yes"/>
      <point x="869.686567164" y="1130.0"/>
      <point x="1098.0" y="926.014925373"/>
    </contour>
    <contour>
      <point x="653" y="555" type="qcurve" smooth="yes"/>
      <point x="676.134328358" y="643.805970149"/>
      <point x="696.0" y="763.417910448"/>
      <point x="696" y="797" type="qcurve" smooth="yes"/>
      <point x="696" y="801" type="line" smooth="yes"/>
      <point x="696.0" y="851.0"/>
      <point x="666.582089552" y="889.0"/>
      <point x="633" y="889" type="qcurve" smooth="yes"/>
      <point x="582.253731343" y="889.0"/>
      <point x="511.537313433" y="721.417910448"/>
      <point x="469" y="555" type="qcurve" smooth="yes"/>
      <point x="445.865671642" y="466.194029851"/>
      <point x="426.0" y="346.582089552"/>
      <point x="426" y="313" type="qcurve" smooth="yes"/>
      <point x="426" y="309" type="line" smooth="yes"/>
      <point x="426.0" y="259.0"/>
      <point x="455.417910448" y="221.0"/>
      <point x="489" y="221" type="qcurve" smooth="yes"/>
      <point x="539.746268657" y="221.0"/>
      <point x="610.462686567" y="388.582089552"/>
    </contour>
  </outline>
</glyph>
<glyph name="q" format="1">
  <advance width="1161.216"/>
  <unicode hex="0071"/>
  <outline>
    <contour>
      <point x="807" y="1126" type="line"/>
      <point x="1212" y="1077" type="line"/>
      <point x="848" y="-385" type="line"/>
      <point x="430" y="-385" type="line"/>
      <point x="575" y="195" type="line"/>
      <point x="567" y="195" type="line"/>
      <point x="470.731343284" y="87.5373134328"/>
      <point x="320.089552239" y="-14.0"/>
      <point x="238" y="-14" type="qcurve" smooth="yes"/>
      <point x="135.014925373" y="-14.0"/>
      <point x="18.0" y="133.671641791"/>
      <point x="18" y="268" type="qcurve" smooth="yes"/>
      <point x="18" y="272" type="line" smooth="yes"/>
      <point x="18.0" y="577.970149254"/>
      <point x="301.686567164" y="1124.0"/>
      <point x="489" y="1124" type="qcurve" smooth="yes"/>
      <point x="577.805970149" y="1124.0"/>
      <point x="688.328358209" y="1045.76119403"/>
      <point x="754" y="948" type="qcurve"/>
      <point x="762" y="948" type="line"/>
    </contour>
    <contour>
      <point x="492" y="264" type="qcurve" smooth="yes"/>
      <point x="577.074626866" y="264.0"/>
      <point x="705.0" y="651.104477612"/>
      <point x="705" y="772" type="qcurve" smooth="yes"/>
      <point x="705.0" y="834.686567164"/>
      <point x="676.104477612" y="879.0"/>
      <point x="647" y="879" type="qcurve" smooth="yes"/>
      <point x="561.179104478" y="879.0"/>
      <point x="434.0" y="491.149253731"/>
      <point x="434" y="371" type="qcurve" smooth="yes"/>
      <point x="434.0" y="308.313432836"/>
      <point x="462.895522388" y="264.0"/>
    </contour>
  </outline>
</glyph>
<glyph name="r" format="1">
  <advance width="909.312"/>
  <unicode hex="0072"/>
  <outline>
    <contour>
      <point x="545" y="711" type="line"/>
      <point x="714.402985075" y="949.059701493"/>
      <point x="923.791044776" y="1122.02985075"/>
      <point x="1032" y="1128" type="qcurve"/>
      <point x="926" y="709" type="line"/>
      <point x="811.074626866" y="699.298507463"/>
      <point x="615.701492537" y="647.731343284"/>
      <point x="506" y="594" type="qcurve"/>
      <point x="358" y="0" type="line"/>
      <point x="-59" y="0" type="line"/>
      <point x="209" y="1077" type="line"/>
      <point x="639" y="1126" type="line"/>
      <point x="535" y="711" type="line"/>
    </contour>
  </outline>
</glyph>
<glyph name="t" format="1">
  <advance width="935.936"/>
  <unicode hex="0074"/>
  <outline>
    <contour>
      <point x="733" y="1106" type="line"/>
      <point x="1008" y="1106" type="line"/>
      <point x="940" y="831" type="line"/>
      <point x="666" y="831" type="line"/>
      <point x="567" y="438" type="line" smooth="yes"/>
      <point x="564.014925373" y="424.567164179"/>
      <point x="557.0" y="387.925373134"/>
      <point x="557" y="373" type="qcurve" smooth="yes"/>
      <point x="557.0" y="334.940298507"/>
      <point x="608.462686567" y="301.0"/>
      <point x="651" y="301" type="qcurve" smooth="yes"/>
      <point x="691.298507463" y="301.0"/>
      <point x="774.835820896" y="316.865671642"/>
      <point x="842" y="340" type="qcurve"/>
      <point x="768" y="39" type="line"/>
      <point x="674.71641791" y="5.41791044776"/>
      <point x="516.268656716" y="-20.0"/>
      <point x="420" y="-20" type="qcurve" smooth="yes"/>
      <point x="271.492537313" y="-20.0"/>
      <point x="121.0" y="107.835820896"/>
      <point x="121" y="225" type="qcurve" smooth="yes"/>
      <point x="121.0" y="251.119402985"/>
      <point x="129.537313433" y="323.910447761"/>
      <point x="137" y="356" type="qcurve" smooth="yes"/>
      <point x="256" y="831" type="line"/>
      <point x="76" y="831" type="line"/>
      <point x="143" y="1106" type="line"/>
      <point x="324" y="1106" type="line"/>
      <point x="408" y="1442" type="line"/>
      <point x="829" y="1491" type="line"/>
    </contour>
  </outline>
</glyph>
<glyph name="u" format="1">
  <advance width="1163.264"/>
  <unicode hex="0075"/>
  <outline>
    <contour>
      <point x="805" y="1110" type="line"/>
      <point x="1223" y="1110" type="line"/>
      <point x="954" y="33" type="line"/>
      <point x="524" y="-16" type="line"/>
      <point x="584" y="225" type="line"/>
      <point x="575" y="225" type="line"/>
      <point x="460.820895522" y="95.1492537313"/>
      <point x="288.074626866" y="-14.0"/>
      <point x="203" y="-14" type="qcurve" smooth="yes"/>
      <point x="100.76119403" y="-14.0"/>
      <point x="-8.0" y="97.5074626866"/>
      <point x="-8" y="199" type="qcurve" smooth="yes"/>
      <point x="-8.0" y="224.373134328"/>
      <point x="0.537313432836" y="285.417910448"/>
      <point x="8" y="319" type="qcurve" smooth="yes"/>
      <point x="205" y="1110" type="line"/>
      <point x="623" y="1110" type="line"/>
      <point x="451" y="424" type="line" smooth="yes"/>
      <point x="445.776119403" y="405.343283582"/>
      <point x="442.0" y="374.179104478"/>
      <point x="442" y="360" type="qcurve" smooth="yes"/>
      <point x="442.0" y="327.910447761"/>
      <point x="479.940298507" y="295.0"/>
      <point x="518" y="295" type="qcurve" smooth="yes"/>
      <point x="538.149253731" y="295.0"/>
      <point x="580.388059701" y="307.820895522"/>
      <point x="608" y="322" type="qcurve"/>
    </contour>
  </outline>
</glyph>
<glyph name="v" format="1">
  <advance width="1179.648"/>
  <unicode hex="0076"/>
  <outline>
    <contour>
      <point x="887" y="1110" type="line"/>
      <point x="1307" y="1110" type="line"/>
      <point x="678" y="-8" type="line"/>
      <point x="219" y="-8" type="line"/>
      <point x="147" y="1110" type="line"/>
      <point x="563" y="1110" type="line"/>
      <point x="553" y="416" type="line"/>
    </contour>
  </outline>
</glyph>
<glyph name="y" format="1">
  <advance width="1179.648"/>
  <unicode hex="0079"/>
  <outline>
    <contour>
      <point x="887" y="1110" type="line"/>
      <point x="1307" y="1110" type="line"/>
      <point x="621" y="-109" type="line" smooth="yes"/>
      <point x="529.208955224" y="-272.432835821"/>
      <point x="314.925373134" y="-391.0"/>
      <point x="150" y="-391" type="qcurve" smooth="yes"/>
      <point x="45.5223880597" y="-391.0"/>
      <point x="-105.343283582" y="-361.104477612"/>
      <point x="-174" y="-332" type="qcurve"/>
      <point x="-111" y="-76" type="line"/>
      <point x="-39" y="-76" type="line"/>
      <point x="-17.3582089552" y="-124.507462687"/>
      <point x="48.0298507463" y="-182.0"/>
      <point x="104" y="-182" type="qcurve" smooth="yes"/>
      <point x="144.298507463" y="-182.0"/>
      <point x="209.119402985" y="-149.567164179"/>
      <point x="233" y="-113" type="qcurve" smooth="yes"/>
      <point x="246" y="-94" type="line"/>
      <point x="147" y="1110" type="line"/>
      <point x="563" y="1110" type="line"/>
      <point x="547" y="395" type="line"/>
    </contour>
  </outline>
</glyph>
<glyph name="z" format="1">
  <advance width="985.088"/>
  <unicode hex="007A"/>
  <outline>
    <contour>
      <point x="213" y="1110" type="line"/>
      <point x="1081" y="1110" type="line"/>
      <point x="1020" y="866" type="line"/>
      <point x="444" y="274" type="line"/>
      <point x="872" y="274" type="line"/>
      <point x="803" y="0" type="line"/>
      <point x="-96" y="0" type="line"/>
      <point x="-35" y="244" type="line"/>
      <point x="541" y="836" type="line"/>
      <point x="143" y="836" type="line"/>
    </contour>
  </outline>
</glyph>
<glyph name="exclamdown" format="1">
  <advance width="626.688"/>
  <unicode hex="00A1"/>
  <outline>
    <contour>
      <point x="485" y="1489" type="qcurve" smooth="yes"/>
      <point x="576.791044776" y="1489.0"/>
      <point x="700.0" y="1365.79104478"/>
      <point x="700" y="1274" type="qcurve" smooth="yes"/>
      <point x="700.0" y="1182.20895522"/>
      <point x="576.791044776" y="1059.0"/>
      <point x="485" y="1059" type="qcurve" smooth="yes"/>
      <point x="393.208955224" y="1059.0"/>
      <point x="270.0" y="1182.20895522"/>
      <point x="270" y="1274" type="qcurve" smooth="yes"/>
      <point x="270.0" y="1365.79104478"/>
      <point x="393.208955224" y="1489.0"/>
    </contour>
    <contour>
      <point x="293" y="956" type="line"/>
      <point x="543" y="956" type="line"/>
      <point x="416" y="0" type="line"/>
      <point x="-80" y="0" type="line"/>
    </contour>
  </outline>
</glyph>
<glyph name="cent" format="1">
  <advance width="1075.2"/>
  <unicode hex="00A2"/>
  <outline>
    <contour>
      <point x="1047" y="1305" type="line"/>
      <point x="1274" y="1305" type="line"/>
      <point x="440" y="250" type="line"/>
      <point x="452.686567164" y="244.029850746"/>
      <point x="485.343283582" y="238.0"/>
      <point x="504" y="238" type="qcurve" smooth="yes"/>
      <point x="548.029850746" y="238.0"/>
      <point x="628.746268657" y="306.0"/>
      <point x="678" y="406" type="qcurve"/>
      <point x="985" y="326" type="line"/>
      <point x="914.850746269" y="167.044776119"/>
      <point x="666.492537313" y="-20.0"/>
      <point x="465" y="-20" type="qcurve" smooth="yes"/>
      <point x="403.805970149" y="-20.0"/>
      <point x="297.52238806" y="-4.41791044776"/>
      <point x="252" y="12" type="qcurve"/>
      <point x="88" y="-195" type="line"/>
      <point x="-139" y="-195" type="line"/>
      <point x="113" y="106" type="line"/>
      <point x="69.7164179104" y="155.253731343"/>
      <point x="25.0" y="293.686567164"/>
      <point x="25" y="381" type="qcurve" smooth="yes"/>
      <point x="25" y="385" type="line" smooth="yes"/>
      <point x="25.0" y="426.044776119"/>
      <point x="43.5671641791" y="545.28358209"/>
      <point x="57" y="602" type="qcurve" smooth="yes"/>
      <point x="122.671641791" y="861.701492537"/>
      <point x="416.462686567" y="1130.0"/>
      <point x="659" y="1130" type="qcurve" smooth="yes"/>
      <point x="725.417910448" y="1130.0"/>
      <point x="832.76119403" y="1107.62686567"/>
      <point x="885" y="1083" type="qcurve"/>
    </contour>
    <contour>
      <point x="395" y="416" type="qcurve"/>
      <point x="715" y="852" type="line"/>
      <point x="699.328358209" y="862.447761194"/>
      <point x="662.134328358" y="872.0"/>
      <point x="639" y="872" type="qcurve" smooth="yes"/>
      <point x="580.791044776" y="872.0"/>
      <point x="476.268656716" y="728.402985075"/>
      <point x="430" y="559" type="qcurve" smooth="yes"/>
      <point x="418.059701493" y="516.462686567"/>
      <point x="400.970149254" y="445.104477612"/>
    </contour>
  </outline>
</glyph>
<glyph name="sterling" format="1">
  <advance width="1290.24"/>
  <unicode hex="00A3"/>
  <outline>
    <contour>
      <point x="846" y="1499" type="qcurve" smooth="yes"/>
      <point x="1105.70149254" y="1499.0"/>
      <point x="1328.31343284" y="1297.58208955"/>
      <point x="1391" y="1114" type="qcurve"/>
      <point x="1014" y="975" type="line"/>
      <point x="981.910447761" y="1090.67164179"/>
      <point x="904.149253731" y="1188.0"/>
      <point x="834" y="1188" type="qcurve" smooth="yes"/>
      <point x="760.119402985" y="1188.0"/>
      <point x="686.0" y="1067.43283582"/>
      <point x="686" y="954" type="qcurve" smooth="yes"/>
      <point x="686" y="829" type="line"/>
      <point x="1049" y="829" type="line"/>
      <point x="1001" y="635" type="line"/>
      <point x="684" y="635" type="line"/>
      <point x="678.029850746" y="553.656716418"/>
      <point x="643.611940299" y="408.686567164"/>
      <point x="616" y="346" type="qcurve"/>
      <point x="640.626865672" y="335.552238806"/>
      <point x="697.417910448" y="324.0"/>
      <point x="731" y="324" type="qcurve" smooth="yes"/>
      <point x="802.641791045" y="324.0"/>
      <point x="910.313432836" y="392.701492537"/>
      <point x="973" y="483" type="qcurve"/>
      <point x="1227" y="391" type="line"/>
      <point x="1130.73134328" y="176.820895522"/>
      <point x="907.313432836" y="-12.0"/>
      <point x="770" y="-12" type="qcurve" smooth="yes"/>
      <point x="679.701492537" y="-12.0"/>
      <point x="520.268656716" y="48.8208955224"/>
      <point x="424" y="113" type="qcurve"/>
      <point x="333.701492537" y="53.2985074627"/>
      <point x="83.9402985075" y="-12.0"/>
      <point x="-78" y="-12" type="qcurve"/>
      <point x="-8" y="274" type="line"/>
      <point x="153.940298507" y="300.119402985"/>
      <point x="286.014925373" y="458.880597015"/>
      <point x="289" y="635" type="qcurve"/>
      <point x="80" y="635" type="line"/>
      <point x="127" y="829" type="line"/>
      <point x="289" y="829" type="line"/>
      <point x="289" y="942" type="line" smooth="yes"/>
      <point x="289.0" y="1207.67164179"/>
      <point x="575.104477612" y="1499.0"/>
    </contour>
  </outline>
</glyph>
<glyph name="yen" format="1">
  <advance width="1351.68"/>
  <unicode hex="00A5"/>
  <outline>
    <contour>
      <point x="1135" y="1475" type="line"/>
      <point x="1575" y="1475" type="line"/>
      <point x="1100" y="860" type="line"/>
      <point x="1333" y="860" type="line"/>
      <point x="1284" y="666" type="line"/>
      <point x="950" y="666" type="line"/>
      <point x="891" y="590" type="line"/>
      <point x="858" y="459" type="line"/>
      <point x="1233" y="459" type="line"/>
      <point x="1184" y="264" type="line"/>
      <point x="809" y="264" type="line"/>
      <point x="743" y="0" type="line"/>
      <point x="330" y="0" type="line"/>
      <point x="395" y="264" type="line"/>
      <point x="20" y="264" type="line"/>
      <point x="70" y="459" type="line"/>
      <point x="444" y="459" type="line"/>
      <point x="475" y="582" type="line"/>
      <point x="453" y="666" type="line"/>
      <point x="121" y="666" type="line"/>
      <point x="170" y="860" type="line"/>
      <point x="401" y="860" type="line"/>
      <point x="236" y="1475" type="line"/>
      <point x="676" y="1475" type="line"/>
      <point x="768" y="932" type="line"/>
    </contour>
  </outline>
</glyph>
<glyph name="section" format="1">
  <advance width="1265.664"/>
  <unicode hex="00A7"/>
  <outline>
    <contour>
      <point x="737" y="1499" type="qcurve" smooth="yes"/>
      <point x="910.134328358" y="1499.0"/>
      <point x="1220.34328358" y="1406.85074627"/>
      <point x="1339" y="1327" type="qcurve"/>
      <point x="1192" y="1098" type="line"/>
      <point x="1086.7761194" y="1162.17910448"/>
      <point x="830.76119403" y="1241.0"/>
      <point x="733" y="1241" type="qcurve" smooth="yes"/>
      <point x="683.0" y="1241.0"/>
      <point x="635.0" y="1215.64179104"/>
      <point x="635" y="1194" type="qcurve" smooth="yes"/>
      <point x="635.0" y="1167.88059701"/>
      <point x="713.223880597" y="1125.26865672"/>
      <point x="858" y="1079" type="qcurve" smooth="yes"/>
      <point x="1114.71641791" y="998.402985075"/>
      <point x="1272.0" y="856.805970149"/>
      <point x="1272" y="768" type="qcurve" smooth="yes"/>
      <point x="1272.0" y="656.059701493"/>
      <point x="1080.1641791" y="516.985074627"/>
      <point x="913" y="514" type="qcurve"/>
      <point x="909" y="502" type="line"/>
      <point x="974.671641791" y="463.940298507"/>
      <point x="1055.0" y="357.343283582"/>
      <point x="1055" y="276" type="qcurve" smooth="yes"/>
      <point x="1055.0" y="141.671641791"/>
      <point x="842.358208955" y="-25.0"/>
      <point x="614" y="-25" type="qcurve" smooth="yes"/>
      <point x="441.611940299" y="-25.0"/>
      <point x="131.402985075" y="67.8955223881"/>
      <point x="12" y="147" type="qcurve"/>
      <point x="160" y="377" type="line"/>
      <point x="265.223880597" y="312.820895522"/>
      <point x="520.23880597" y="233.0"/>
      <point x="618" y="233" type="qcurve" smooth="yes"/>
      <point x="668.746268657" y="233.0"/>
      <point x="717.0" y="259.358208955"/>
      <point x="717" y="281" type="qcurve" smooth="yes"/>
      <point x="717.0" y="306.373134328"/>
      <point x="638.776119403" y="349.47761194"/>
      <point x="494" y="395" type="qcurve" smooth="yes"/>
      <point x="237.28358209" y="476.343283582"/>
      <point x="80.0" y="618.194029851"/>
      <point x="80" y="707" type="qcurve" smooth="yes"/>
      <point x="80.0" y="818.194029851"/>
      <point x="271.582089552" y="957.268656716"/>
      <point x="438" y="961" type="qcurve"/>
      <point x="442" y="973" type="line"/>
      <point x="376.328358209" y="1011.05970149"/>
      <point x="297.0" y="1117.40298507"/>
      <point x="297" y="1198" type="qcurve" smooth="yes"/>
      <point x="297.0" y="1332.32835821"/>
      <point x="509.388059701" y="1499.0"/>
    </contour>
    <contour>
      <point x="797" y="608" type="qcurve" smooth="yes"/>
      <point x="882.074626866" y="608.0"/>
      <point x="961.0" y="653.940298507"/>
      <point x="961" y="692" type="qcurve" smooth="yes"/>
      <point x="961.0" y="719.611940299"/>
      <point x="893.298507463" y="776.432835821"/>
      <point x="803" y="813" type="qcurve" smooth="yes"/>
      <point x="752.253731343" y="833.149253731"/>
      <point x="611.71641791" y="866.0"/>
      <point x="555" y="866" type="qcurve" smooth="yes"/>
      <point x="469.179104478" y="866.0"/>
      <point x="391.0" y="820.805970149"/>
      <point x="391" y="782" type="qcurve" smooth="yes"/>
      <point x="391.0" y="754.388059701"/>
      <point x="458.701492537" y="698.567164179"/>
      <point x="549" y="662" type="qcurve" smooth="yes"/>
      <point x="599.0" y="641.850746269"/>
      <point x="740.28358209" y="608.0"/>
    </contour>
  </outline>
</glyph>
<glyph name="dieresis" format="1">
  <advance width="1024.0"/>
  <unicode hex="00A8"/>
  <outline>
    <contour>
      <point x="381" y="1522" type="line"/>
      <point x="686" y="1522" type="line"/>
      <point x="608" y="1212" type="line"/>
      <point x="303" y="1212" type="line"/>
    </contour>
    <contour>
      <point x="821" y="1522" type="line"/>
      <point x="1126" y="1522" type="line"/>
      <point x="1049" y="1212" type="line"/>
      <point x="743" y="1212" type="line"/>
    </contour>
  </outline>
</glyph>
<glyph name="ordfeminine" format="1">
  <advance width="860.16"/>
  <unicode hex="00AA"/>
  <outline>
    <contour>
      <point x="651" y="1485" type="qcurve" smooth="yes"/>
      <point x="776.373134328" y="1485.0"/>
      <point x="901.0" y="1390.07462687"/>
      <point x="901" y="1305" type="qcurve" smooth="yes"/>
      <point x="901.0" y="1283.35820896"/>
      <point x="894.970149254" y="1232.11940299"/>
      <point x="889" y="1206" type="qcurve" smooth="yes"/>
      <point x="809" y="889" type="line" smooth="yes"/>
      <point x="807.507462687" y="880.044776119"/>
      <point x="803.0" y="861.970149254"/>
      <point x="803" y="856" type="qcurve" smooth="yes"/>
      <point x="803.0" y="839.582089552"/>
      <point x="828.388059701" y="823.985074627"/>
      <point x="856" y="821" type="qcurve"/>
      <point x="831" y="727" type="line"/>
      <point x="687.71641791" y="727.0"/>
      <point x="564.940298507" y="776.492537313"/>
      <point x="553" y="825" type="qcurve"/>
      <point x="493.298507463" y="776.492537313"/>
      <point x="386.686567164" y="727.0"/>
      <point x="324" y="727" type="qcurve" smooth="yes"/>
      <point x="250.119402985" y="727.0"/>
      <point x="164.0" y="809.626865672"/>
      <point x="164" y="885" type="qcurve" smooth="yes"/>
      <point x="164.0" y="994.701492537"/>
      <point x="366.28358209" y="1160.32835821"/>
      <point x="623" y="1176" type="qcurve"/>
      <point x="633" y="1214" type="line" smooth="yes"/>
      <point x="634.492537313" y="1222.20895522"/>
      <point x="637.0" y="1243.02985075"/>
      <point x="637" y="1249" type="qcurve" smooth="yes"/>
      <point x="637.0" y="1272.13432836"/>
      <point x="603.597014925" y="1300.0"/>
      <point x="573" y="1300" type="qcurve" smooth="yes"/>
      <point x="527.47761194" y="1300.0"/>
      <point x="425.880597015" y="1273.08955224"/>
      <point x="352" y="1241" type="qcurve"/>
      <point x="311" y="1403" type="line"/>
      <point x="399.805970149" y="1444.04477612"/>
      <point x="567.417910448" y="1485.0"/>
    </contour>
    <contour>
      <point x="555" y="901" type="qcurve"/>
      <point x="600" y="1079" type="line"/>
      <point x="500.746268657" y="1065.56716418"/>
      <point x="426.0" y="991.791044776"/>
      <point x="426" y="950" type="qcurve" smooth="yes"/>
      <point x="426.0" y="919.402985075"/>
      <point x="459.194029851" y="885.0"/>
      <point x="498" y="885" type="qcurve" smooth="yes"/>
      <point x="509.940298507" y="885.0"/>
      <point x="537.835820896" y="893.537313433"/>
    </contour>
    <contour>
      <point x="100" y="621" type="line"/>
      <point x="799" y="621" type="line"/>
      <point x="764" y="483" type="line"/>
      <point x="66" y="483" type="line"/>
    </contour>
  </outline>
</glyph>
<glyph name="uni00AE" format="1">
  <advance width="1658.88"/>
  <unicode hex="00AE"/>
  <outline>
    <contour>
      <point x="1090" y="686" type="qcurve"/>
      <point x="1282" y="313" type="line"/>
      <point x="999" y="313" type="line"/>
      <point x="840" y="645" type="line"/>
      <point x="817" y="645" type="line"/>
      <point x="817" y="313" type="line"/>
      <point x="551" y="313" type="line"/>
      <point x="551" y="1198" type="line"/>
      <point x="901" y="1198" type="line" smooth="yes"/>
      <point x="1052.49253731" y="1198.0"/>
      <point x="1235.0" y="1064.29850746"/>
      <point x="1235" y="924" type="qcurve" smooth="yes"/>
      <point x="1235.0" y="841.164179104"/>
      <point x="1160.14925373" y="719.582089552"/>
    </contour>
    <contour>
      <point x="877" y="1499" type="qcurve" smooth="yes"/>
      <point x="1203.86567164" y="1499.0"/>
      <point x="1636.0" y="1066.6119403"/>
      <point x="1636" y="739" type="qcurve" smooth="yes"/>
      <point x="1636.0" y="412.134328358"/>
      <point x="1199.6119403" y="-25.0"/>
      <point x="872" y="-25" type="qcurve" smooth="yes"/>
      <point x="545.134328358" y="-25.0"/>
      <point x="113.0" y="408.134328358"/>
      <point x="113" y="735" type="qcurve" smooth="yes"/>
      <point x="113.0" y="1062.6119403"/>
      <point x="549.388059701" y="1499.0"/>
    </contour>
    <contour>
      <point x="877" y="61" type="qcurve" smooth="yes"/>
      <point x="1170.28358209" y="61.0"/>
      <point x="1536.0" y="441.71641791"/>
      <point x="1536" y="735" type="qcurve" smooth="yes"/>
      <point x="1536.0" y="1028.28358209"/>
      <point x="1166.02985075" y="1413.0"/>
      <point x="872" y="1413" type="qcurve" smooth="yes"/>
      <point x="578.71641791" y="1413.0"/>
      <point x="213.0" y="1033.02985075"/>
      <point x="213" y="739" type="qcurve" smooth="yes"/>
      <point x="213.0" y="445.71641791"/>
      <point x="582.970149254" y="61.0"/>
    </contour>
    <contour>
      <point x="866" y="817" type="line" smooth="yes"/>
      <point x="918.23880597" y="817.0"/>
      <point x="971.0" y="872.746268657"/>
      <point x="971" y="922" type="qcurve" smooth="yes"/>
      <point x="971.0" y="967.52238806"/>
      <point x="916.746268657" y="1014.0"/>
      <point x="866" y="1014" type="qcurve" smooth="yes"/>
      <point x="805" y="1014" type="line"/>
      <point x="805" y="817" type="line"/>
    </contour>
  </outline>
</glyph>
<glyph name="paragraph" format="1">
  <advance width="1167.36"/>
  <unicode hex="00B6"/>
  <outline>
    <contour>
      <point x="791" y="1475" type="qcurve" smooth="yes"/>
      <point x="1286" y="1475" type="line"/>
      <point x="918" y="0" type="line"/>
      <point x="762" y="0" type="line"/>
      <point x="1094" y="1329" type="line"/>
      <point x="932" y="1329" type="line"/>
      <point x="600" y="0" type="line"/>
      <point x="444" y="0" type="line"/>
      <point x="588" y="567" type="line"/>
      <point x="414.865671642" y="599.089552239"/>
      <point x="166.0" y="787.0"/>
      <point x="166" y="987" type="qcurve" smooth="yes"/>
      <point x="166.0" y="1201.17910448"/>
      <point x="493.985074627" y="1475.0"/>
    </contour>
  </outline>
</glyph>
<glyph name="periodcentered" format="1">
  <advance width="548.864"/>
  <unicode hex="00B7"/>
  <outline>
    <contour>
      <point x="276" y="795" type="qcurve" smooth="yes"/>
      <point x="373.014925373" y="795.0"/>
      <point x="502.0" y="665.268656716"/>
      <point x="502" y="569" type="qcurve" smooth="yes"/>
      <point x="502.0" y="472.731343284"/>
      <point x="373.014925373" y="344.0"/>
      <point x="276" y="344" type="qcurve" smooth="yes"/>
      <point x="179.731343284" y="344.0"/>
      <point x="51.0" y="472.731343284"/>
      <point x="51" y="569" type="qcurve" smooth="yes"/>
      <point x="51.0" y="665.268656716"/>
      <point x="179.731343284" y="795.0"/>
    </contour>
  </outline>
</glyph>
<glyph name="cedilla" format="1">
  <advance width="1024.0"/>
  <unicode hex="00B8"/>
  <outline>
    <contour>
      <point x="434" y="-80" type="qcurve" smooth="yes"/>
      <point x="539.223880597" y="-80.0"/>
      <point x="633.0" y="-144.28358209"/>
      <point x="633" y="-201" type="qcurve" smooth="yes"/>
      <point x="633.0" y="-298.76119403"/>
      <point x="391.119402985" y="-391.0"/>
      <point x="215" y="-391" type="qcurve" smooth="yes"/>
      <point x="153.805970149" y="-391.0"/>
      <point x="25.0447761194" y="-379.47761194"/>
      <point x="-16" y="-375" type="qcurve"/>
      <point x="4" y="-303" type="line"/>
      <point x="50.2686567164" y="-307.47761194"/>
      <point x="148.447761194" y="-315.0"/>
      <point x="188" y="-315" type="qcurve" smooth="yes"/>
      <point x="290.985074627" y="-315.0"/>
      <point x="393.0" y="-280.597014925"/>
      <point x="393" y="-250" type="qcurve" smooth="yes"/>
      <point x="393.0" y="-231.343283582"/>
      <point x="356.791044776" y="-207.0"/>
      <point x="315" y="-207" type="qcurve" smooth="yes"/>
      <point x="292.611940299" y="-207.0"/>
      <point x="245.597014925" y="-213.537313433"/>
      <point x="215" y="-221" type="qcurve"/>
      <point x="145" y="-170" type="line"/>
      <point x="348" y="0" type="line"/>
      <point x="469" y="0" type="line"/>
      <point x="358" y="-84" type="line"/>
      <point x="375.164179104" y="-82.5074626866"/>
      <point x="416.089552239" y="-80.0"/>
    </contour>
  </outline>
</glyph>
<glyph name="ordmasculine" format="1">
  <advance width="860.16"/>
  <unicode hex="00BA"/>
  <outline>
    <contour>
      <point x="573" y="1489" type="qcurve" smooth="yes"/>
      <point x="727.47761194" y="1489.0"/>
      <point x="903.0" y="1345.43283582"/>
      <point x="903" y="1182" type="qcurve" smooth="yes"/>
      <point x="903.0" y="1021.55223881"/>
      <point x="708.029850746" y="717.0"/>
      <point x="514" y="717" type="qcurve" smooth="yes"/>
      <point x="359.52238806" y="717.0"/>
      <point x="184.0" y="860.567164179"/>
      <point x="184" y="1024" type="qcurve" smooth="yes"/>
      <point x="184.0" y="1184.44776119"/>
      <point x="378.970149254" y="1489.0"/>
    </contour>
    <contour>
      <point x="506" y="881" type="qcurve" smooth="yes"/>
      <point x="570.179104478" y="881.0"/>
      <point x="637.0" y="1147.62686567"/>
      <point x="637" y="1223" type="qcurve" smooth="yes"/>
      <point x="637.0" y="1277.47761194"/>
      <point x="608.865671642" y="1325.0"/>
      <point x="582" y="1325" type="qcurve" smooth="yes"/>
      <point x="517.820895522" y="1325.0"/>
      <point x="451.0" y="1057.62686567"/>
      <point x="451" y="983" type="qcurve" smooth="yes"/>
      <point x="451.0" y="927.776119403"/>
      <point x="478.388059701" y="881.0"/>
    </contour>
    <contour>
      <point x="106" y="621" type="line"/>
      <point x="786" y="621" type="line"/>
      <point x="752" y="483" type="line"/>
      <point x="72" y="483" type="line"/>
    </contour>
  </outline>
</glyph>
<glyph name="Ccedilla" format="1">
  <advance width="1277.952"/>
  <unicode hex="00C7"/>
  <outline>
    <contour>
      <point x="836" y="1499" type="qcurve" smooth="yes"/>
      <point x="1120.32835821" y="1499.0"/>
      <point x="1358.6119403" y="1195.79104478"/>
      <point x="1331" y="954" type="qcurve"/>
      <point x="895" y="879" type="line"/>
      <point x="915.149253731" y="1032.73134328"/>
      <point x="867.149253731" y="1167.0"/>
      <point x="797" y="1167" type="qcurve" smooth="yes"/>
      <point x="732.820895522" y="1167.0"/>
      <point x="631.492537313" y="988.552238806"/>
      <point x="580" y="799" type="qcurve" smooth="yes"/>
      <point x="546.417910448" y="678.104477612"/>
      <point x="520.0" y="507.47761194"/>
      <point x="520" y="453" type="qcurve" smooth="yes"/>
      <point x="520" y="444" type="line" smooth="yes"/>
      <point x="520.0" y="381.313432836"/>
      <point x="581.23880597" y="307.0"/>
      <point x="629" y="307" type="qcurve" smooth="yes"/>
      <point x="691.686567164" y="307.0"/>
      <point x="783.253731343" y="427.23880597"/>
      <point x="834" y="575" type="qcurve"/>
      <point x="1227" y="461" type="line"/>
      <point x="1126.25373134" y="208.76119403"/>
      <point x="839.253731343" y="-25.0"/>
      <point x="590" y="-25" type="qcurve"/>
      <point x="512" y="-84" type="line"/>
      <point x="529.164179104" y="-82.5074626866"/>
      <point x="569.343283582" y="-80.0"/>
      <point x="588" y="-80" type="qcurve" smooth="yes"/>
      <point x="693.223880597" y="-80.0"/>
      <point x="786.0" y="-144.28358209"/>
      <point x="786" y="-201" type="qcurve" smooth="yes"/>
      <point x="786.0" y="-298.76119403"/>
      <point x="544.373134328" y="-391.0"/>
      <point x="369" y="-391" type="qcurve" smooth="yes"/>
      <point x="307.805970149" y="-391.0"/>
      <point x="178.791044776" y="-379.47761194"/>
      <point x="137" y="-375" type="qcurve"/>
      <point x="158" y="-303" type="line"/>
      <point x="203.52238806" y="-307.47761194"/>
      <point x="302.447761194" y="-315.0"/>
      <point x="342" y="-315" type="qcurve" smooth="yes"/>
      <point x="444.23880597" y="-315.0"/>
      <point x="547.0" y="-280.597014925"/>
      <point x="547" y="-250" type="qcurve" smooth="yes"/>
      <point x="547.0" y="-231.343283582"/>
      <point x="510.044776119" y="-207.0"/>
      <point x="469" y="-207" type="qcurve" smooth="yes"/>
      <point x="445.865671642" y="-207.0"/>
      <point x="399.597014925" y="-213.537313433"/>
      <point x="369" y="-221" type="qcurve"/>
      <point x="299" y="-170" type="line"/>
      <point x="481" y="-16" type="line"/>
      <point x="299.656716418" y="10.8656716418"/>
      <point x="78.0" y="254.791044776"/>
      <point x="78" y="463" type="qcurve" smooth="yes"/>
      <point x="78" y="473" type="line" smooth="yes"/>
      <point x="78.0" y="525.23880597"/>
      <point x="96.8208955224" y="702.805970149"/>
      <point x="111" y="764" type="qcurve" smooth="yes"/>
      <point x="197.567164179" y="1153.55223881"/>
      <point x="547.194029851" y="1499.0"/>
    </contour>
  </outline>
</glyph>
<glyph name="Eth" format="1">
  <advance width="1404.928"/>
  <unicode hex="00D0"/>
  <outline>
    <contour>
      <point x="1432" y="1004" type="qcurve" smooth="yes"/>
      <point x="1432" y="995" type="line" smooth="yes"/>
      <point x="1432.0" y="939.029850746"/>
      <point x="1416.91044776" y="816.850746269"/>
      <point x="1399" y="737" type="qcurve" smooth="yes"/>
      <point x="1308.70149254" y="342.970149254"/>
      <point x="940.029850746" y="0.0"/>
      <point x="596" y="0" type="qcurve" smooth="yes"/>
      <point x="29" y="0" type="line"/>
      <point x="176" y="586" type="line"/>
      <point x="39" y="586" type="line"/>
      <point x="123" y="926" type="line"/>
      <point x="260" y="926" type="line"/>
      <point x="397" y="1475" type="line"/>
      <point x="883" y="1475" type="line" smooth="yes"/>
      <point x="1150.1641791" y="1475.0"/>
      <point x="1432.0" y="1240.56716418"/>
    </contour>
    <contour>
      <point x="940" y="737" type="qcurve" smooth="yes"/>
      <point x="955.671641791" y="795.208955224"/>
      <point x="971.0" y="915.746268657"/>
      <point x="971" y="965" type="qcurve" smooth="yes"/>
      <point x="971" y="977" type="line" smooth="yes"/>
      <point x="971.0" y="1051.62686567"/>
      <point x="897.358208955" y="1143.0"/>
      <point x="819" y="1143" type="qcurve" smooth="yes"/>
      <point x="725" y="1143" type="line"/>
      <point x="672" y="926" type="line"/>
      <point x="831" y="926" type="line"/>
      <point x="748" y="586" type="line"/>
      <point x="588" y="586" type="line"/>
      <point x="524" y="332" type="line"/>
      <point x="623" y="332" type="line" smooth="yes"/>
      <point x="743.149253731" y="332.0"/>
      <point x="878.805970149" y="506.402985075"/>
    </contour>
  </outline>
</glyph>
<glyph name="multiply" format="1">
  <advance width="1228.8"/>
  <unicode hex="00D7"/>
  <outline>
    <contour>
      <point x="891" y="727" type="line"/>
      <point x="1208" y="424" type="line"/>
      <point x="961" y="176" type="line"/>
      <point x="657" y="494" type="line"/>
      <point x="354" y="176" type="line"/>
      <point x="106" y="424" type="line"/>
      <point x="424" y="727" type="line"/>
      <point x="106" y="1030" type="line"/>
      <point x="354" y="1278" type="line"/>
      <point x="657" y="961" type="line"/>
      <point x="961" y="1278" type="line"/>
      <point x="1208" y="1030" type="line"/>
    </contour>
  </outline>
</glyph>
<glyph name="ae" format="1">
  <advance width="1642.496"/>
  <unicode hex="00E6"/>
  <outline>
    <contour>
      <point x="1239" y="1130" type="qcurve" smooth="yes"/>
      <point x="1443.47761194" y="1130.0"/>
      <point x="1622.0" y="937.373134328"/>
      <point x="1622" y="762" type="qcurve" smooth="yes"/>
      <point x="1622.0" y="694.835820896"/>
      <point x="1595.11940299" y="546.791044776"/>
      <point x="1569" y="455" type="qcurve"/>
      <point x="985" y="455" type="line"/>
      <point x="985.0" y="440.820895522"/>
      <point x="983.0" y="418.955223881"/>
      <point x="983" y="410" type="qcurve" smooth="yes"/>
      <point x="983" y="406" type="line" smooth="yes"/>
      <point x="983.0" y="326.149253731"/>
      <point x="1075.92537313" y="264.0"/>
      <point x="1161" y="264" type="qcurve" smooth="yes"/>
      <point x="1213.23880597" y="264.0"/>
      <point x="1378.73134328" y="294.388059701"/>
      <point x="1475" y="322" type="qcurve"/>
      <point x="1499" y="53" type="line"/>
      <point x="1378.10447761" y="17.9253731343"/>
      <point x="1191.86567164" y="-14.0"/>
      <point x="1065" y="-14" type="qcurve" smooth="yes"/>
      <point x="913.507462687" y="-14.0"/>
      <point x="715.492537313" y="65.3880597015"/>
      <point x="664" y="143" type="qcurve"/>
      <point x="645" y="143" type="line"/>
      <point x="533.805970149" y="63.8955223881"/>
      <point x="336.910447761" y="-10.0"/>
      <point x="219" y="-10" type="qcurve" smooth="yes"/>
      <point x="99.5970149254" y="-10.0"/>
      <point x="-35.0" y="111.805970149"/>
      <point x="-35" y="223" type="qcurve" smooth="yes"/>
      <point x="-35.0" y="387.925373134"/>
      <point x="267.417910448" y="634.611940299"/>
      <point x="651" y="657" type="qcurve"/>
      <point x="666" y="717" type="line" smooth="yes"/>
      <point x="668.985074627" y="728.940298507"/>
      <point x="672.0" y="759.044776119"/>
      <point x="672" y="768" type="qcurve" smooth="yes"/>
      <point x="672.0" y="801.582089552"/>
      <point x="622.76119403" y="846.0"/>
      <point x="575" y="846" type="qcurve" smooth="yes"/>
      <point x="507.835820896" y="846.0"/>
      <point x="356.208955224" y="803.52238806"/>
      <point x="248" y="758" type="qcurve"/>
      <point x="186" y="997" type="line"/>
      <point x="317.343283582" y="1059.68656716"/>
      <point x="549.074626866" y="1122.0"/>
      <point x="664" y="1122" type="qcurve" smooth="yes"/>
      <point x="769.223880597" y="1122.0"/>
      <point x="885.119402985" y="1059.20895522"/>
      <point x="909" y="1001" type="qcurve"/>
      <point x="928" y="1001" type="line"/>
      <point x="993.671641791" y="1062.19402985"/>
      <point x="1144.2238806" y="1130.0"/>
    </contour>
    <contour>
      <point x="604" y="385" type="line" smooth="yes"/>
      <point x="604.0" y="411.119402985"/>
      <point x="612.029850746" y="479.940298507"/>
      <point x="618" y="518" type="qcurve"/>
      <point x="468.746268657" y="494.865671642"/>
      <point x="356.0" y="382.955223881"/>
      <point x="356" y="324" type="qcurve" smooth="yes"/>
      <point x="356.0" y="276.23880597"/>
      <point x="406.28358209" y="225.0"/>
      <point x="463" y="225" type="qcurve" smooth="yes"/>
      <point x="498.074626866" y="225.0"/>
      <point x="567.970149254" y="248.119402985"/>
      <point x="612" y="272" type="qcurve"/>
      <point x="607.52238806" y="298.119402985"/>
      <point x="604.0" y="351.895522388"/>
      <point x="604" y="381" type="qcurve" smooth="yes"/>
    </contour>
    <contour>
      <point x="1225" y="608" type="line"/>
      <point x="1239.92537313" y="663.223880597"/>
      <point x="1257.0" y="761.895522388"/>
      <point x="1257" y="791" type="qcurve" smooth="yes"/>
      <point x="1257.0" y="843.985074627"/>
      <point x="1226.05970149" y="897.0"/>
      <point x="1188" y="897" type="qcurve" smooth="yes"/>
      <point x="1135.76119403" y="897.0"/>
      <point x="1048.08955224" y="728.895522388"/>
      <point x="1016" y="608" type="qcurve"/>
    </contour>
  </outline>
</glyph>
<glyph name="ccedilla" format="1">
  <advance width="1054.72"/>
  <unicode hex="00E7"/>
  <outline>
    <contour>
      <point x="666" y="1130" type="qcurve" smooth="yes"/>
      <point x="904.059701493" y="1130.0"/>
      <point x="1087.14925373" y="899.731343284"/>
      <point x="1067" y="696" type="qcurve"/>
      <point x="670" y="657" type="line"/>
      <point x="689.402985075" y="767.447761194"/>
      <point x="676.52238806" y="866.0"/>
      <point x="631" y="866" type="qcurve" smooth="yes"/>
      <point x="581.746268657" y="866.0"/>
      <point x="511.537313433" y="713.955223881"/>
      <point x="469" y="555" type="qcurve" smooth="yes"/>
      <point x="450.343283582" y="487.835820896"/>
      <point x="432.0" y="367.552238806"/>
      <point x="432" y="328" type="qcurve" smooth="yes"/>
      <point x="432" y="324" type="line" smooth="yes"/>
      <point x="432.0" y="286.686567164"/>
      <point x="462.134328358" y="242.0"/>
      <point x="489" y="242" type="qcurve" smooth="yes"/>
      <point x="524.820895522" y="242.0"/>
      <point x="588.701492537" y="321.731343284"/>
      <point x="629" y="418" type="qcurve"/>
      <point x="985" y="326" type="line"/>
      <point x="914.850746269" y="167.044776119"/>
      <point x="666.492537313" y="-20.0"/>
      <point x="465" y="-20" type="qcurve"/>
      <point x="381" y="-84" type="line"/>
      <point x="397.417910448" y="-82.5074626866"/>
      <point x="438.343283582" y="-80.0"/>
      <point x="457" y="-80" type="qcurve" smooth="yes"/>
      <point x="562.223880597" y="-80.0"/>
      <point x="655.0" y="-144.28358209"/>
      <point x="655" y="-201" type="qcurve" smooth="yes"/>
      <point x="655.0" y="-298.76119403"/>
      <point x="413.373134328" y="-391.0"/>
      <point x="238" y="-391" type="qcurve" smooth="yes"/>
      <point x="176.805970149" y="-391.0"/>
      <point x="47.0447761194" y="-379.47761194"/>
      <point x="6" y="-375" type="qcurve"/>
      <point x="27" y="-303" type="line"/>
      <point x="72.5223880597" y="-307.47761194"/>
      <point x="171.447761194" y="-315.0"/>
      <point x="211" y="-315" type="qcurve" smooth="yes"/>
      <point x="313.23880597" y="-315.0"/>
      <point x="416.0" y="-280.597014925"/>
      <point x="416" y="-250" type="qcurve" smooth="yes"/>
      <point x="416.0" y="-231.343283582"/>
      <point x="379.044776119" y="-207.0"/>
      <point x="338" y="-207" type="qcurve" smooth="yes"/>
      <point x="314.865671642" y="-207.0"/>
      <point x="268.597014925" y="-213.537313433"/>
      <point x="238" y="-221" type="qcurve"/>
      <point x="168" y="-170" type="line"/>
      <point x="356" y="-12" type="line"/>
      <point x="197.044776119" y="10.3880597015"/>
      <point x="25.0" y="208.611940299"/>
      <point x="25" y="381" type="qcurve" smooth="yes"/>
      <point x="25" y="385" type="line" smooth="yes"/>
      <point x="25.0" y="426.044776119"/>
      <point x="43.5671641791" y="545.28358209"/>
      <point x="57" y="602" type="qcurve" smooth="yes"/>
      <point x="122.671641791" y="861.701492537"/>
      <point x="416.746268657" y="1130.0"/>
    </contour>
  </outline>
</glyph>
<glyph name="oslash" format="1">
  <advance width="1122.304"/>
  <unicode hex="00F8"/>
  <outline>
    <contour>
      <point x="1014" y="1305" type="line"/>
      <point x="1239" y="1305" type="line"/>
      <point x="1004" y="1010" type="line"/>
      <point x="1049.52238806" y="960.746268657"/>
      <point x="1098.0" y="819.298507463"/>
      <point x="1098" y="729" type="qcurve" smooth="yes"/>
      <point x="1098" y="725" type="line" smooth="yes"/>
      <point x="1098.0" y="683.955223881"/>
      <point x="1078.43283582" y="564.71641791"/>
      <point x="1065" y="508" type="qcurve" smooth="yes"/>
      <point x="999.328358209" y="248.298507463"/>
      <point x="708.28358209" y="-20.0"/>
      <point x="465" y="-20" type="qcurve" smooth="yes"/>
      <point x="403.805970149" y="-20.0"/>
      <point x="296.029850746" y="-2.41791044776"/>
      <point x="252" y="14" type="qcurve"/>
      <point x="109" y="-195" type="line"/>
      <point x="-117" y="-195" type="line"/>
      <point x="119" y="98" type="line"/>
      <point x="72.7313432836" y="148.746268657"/>
      <point x="25.0" y="290.701492537"/>
      <point x="25" y="381" type="qcurve" smooth="yes"/>
      <point x="25" y="385" type="line" smooth="yes"/>
      <point x="25.0" y="426.044776119"/>
      <point x="43.5671641791" y="545.28358209"/>
      <point x="57" y="602" type="qcurve" smooth="yes"/>
      <point x="122.671641791" y="861.701492537"/>
      <point x="414.462686567" y="1130.0"/>
      <point x="657" y="1130" type="qcurve" smooth="yes"/>
      <point x="718.194029851" y="1130.0"/>
      <point x="825.970149254" y="1114.41791045"/>
      <point x="870" y="1098" type="qcurve"/>
    </contour>
    <contour>
      <point x="391" y="408" type="qcurve"/>
      <point x="713" y="870" type="line"/>
      <point x="700.313432836" y="885.671641791"/>
      <point x="666.641791045" y="901.0"/>
      <point x="645" y="901" type="qcurve" smooth="yes"/>
      <point x="576.343283582" y="901.0"/>
      <point x="484.776119403" y="767.492537313"/>
      <point x="440" y="616" type="qcurve" smooth="yes"/>
      <point x="423.582089552" y="558.537313433"/>
      <point x="398.462686567" y="450.537313433"/>
    </contour>
    <contour>
      <point x="682" y="494" type="qcurve" smooth="yes"/>
      <point x="699.164179104" y="551.462686567"/>
      <point x="723.537313433" y="659.462686567"/>
      <point x="731" y="702" type="qcurve"/>
      <point x="410" y="238" type="line"/>
      <point x="421.940298507" y="223.820895522"/>
      <point x="456.104477612" y="209.0"/>
      <point x="477" y="209" type="qcurve" smooth="yes"/>
      <point x="545.656716418" y="209.0"/>
      <point x="637.970149254" y="342.507462687"/>
    </contour>
  </outline>
</glyph>
<glyph name="lslash" format="1">
  <advance width="749.568"/>
  <unicode hex="0142"/>
  <outline>
    <contour>
      <point x="694" y="1028" type="line"/>
      <point x="852" y="1085" type="line"/>
      <point x="770" y="758" type="line"/>
      <point x="612" y="702" type="line"/>
      <point x="438" y="0" type="line"/>
      <point x="37" y="0" type="line"/>
      <point x="172" y="545" type="line"/>
      <point x="16" y="489" type="line"/>
      <point x="96" y="817" type="line"/>
      <point x="254" y="872" type="line"/>
      <point x="410" y="1495" type="line"/>
      <point x="821" y="1544" type="line"/>
    </contour>
  </outline>
</glyph>
<glyph name="OE" format="1">
  <advance width="1863.68"/>
  <unicode hex="0152"/>
  <outline>
    <contour>
      <point x="901" y="1475" type="qcurve" smooth="yes"/>
      <point x="2021" y="1475" type="line"/>
      <point x="1937" y="1135" type="line"/>
      <point x="1376" y="1135" type="line"/>
      <point x="1321" y="915" type="line"/>
      <point x="1702" y="915" type="line"/>
      <point x="1622" y="596" type="line"/>
      <point x="1241" y="596" type="line"/>
      <point x="1178" y="340" type="line"/>
      <point x="1763" y="340" type="line"/>
      <point x="1677" y="0" type="line"/>
      <point x="614" y="0" type="line" smooth="yes"/>
      <point x="346.835820896" y="0.0"/>
      <point x="66.0" y="234.432835821"/>
      <point x="66" y="471" type="qcurve" smooth="yes"/>
      <point x="66" y="479" type="line" smooth="yes"/>
      <point x="66.0" y="535.71641791"/>
      <point x="80.0895522388" y="657.895522388"/>
      <point x="98" y="737" type="qcurve" smooth="yes"/>
      <point x="188.298507463" y="1131.7761194"/>
      <point x="556.970149254" y="1475.0"/>
    </contour>
    <contour>
      <point x="752" y="332" type="line"/>
      <point x="952" y="1143" type="line"/>
      <point x="874" y="1143" type="line" smooth="yes"/>
      <point x="753.850746269" y="1143.0"/>
      <point x="618.194029851" y="968.343283582"/>
      <point x="557" y="737" type="qcurve" smooth="yes"/>
      <point x="542.074626866" y="678.791044776"/>
      <point x="526.0" y="558.507462687"/>
      <point x="526" y="510" type="qcurve" smooth="yes"/>
      <point x="526" y="498" type="line" smooth="yes"/>
      <point x="526.0" y="422.626865672"/>
      <point x="599.641791045" y="332.0"/>
      <point x="678" y="332" type="qcurve" smooth="yes"/>
    </contour>
  </outline>
</glyph>
<glyph name="ring" format="1">
  <advance width="1024.0"/>
  <unicode hex="02DA"/>
  <outline>
    <contour>
      <point x="707" y="1638" type="qcurve" smooth="yes"/>
      <point x="845.805970149" y="1638.0"/>
      <point x="999.0" y="1516.76119403"/>
      <point x="999" y="1419" type="qcurve" smooth="yes"/>
      <point x="999.0" y="1318.25373134"/>
      <point x="845.805970149" y="1198.0"/>
      <point x="707" y="1198" type="qcurve" smooth="yes"/>
      <point x="567.447761194" y="1198.0"/>
      <point x="414.0" y="1318.25373134"/>
      <point x="414" y="1419" type="qcurve" smooth="yes"/>
      <point x="414.0" y="1516.76119403"/>
      <point x="567.447761194" y="1638.0"/>
    </contour>
    <contour>
      <point x="707" y="1315" type="qcurve" smooth="yes"/>
      <point x="751.029850746" y="1315.0"/>
      <point x="805.0" y="1373.47761194"/>
      <point x="805" y="1419" type="qcurve" smooth="yes"/>
      <point x="805.0" y="1463.7761194"/>
      <point x="749.537313433" y="1522.0"/>
      <point x="707" y="1522" type="qcurve" smooth="yes"/>
      <point x="663.71641791" y="1522.0"/>
      <point x="608.0" y="1463.7761194"/>
      <point x="608" y="1419" type="qcurve" smooth="yes"/>
      <point x="608.0" y="1373.47761194"/>
      <point x="662.223880597" y="1315.0"/>
    </contour>
  </outline>
</glyph>
<glyph name="ogonek" format="1">
  <advance width="1024.0"/>
  <unicode hex="02DB"/>
  <outline>
    <contour>
      <point x="598" y="-227" type="qcurve"/>
      <point x="618" y="-324" type="line"/>
      <point x="540.388059701" y="-357.582089552"/>
      <point x="380.820895522" y="-389.0"/>
      <point x="295" y="-389" type="qcurve" smooth="yes"/>
      <point x="184.552238806" y="-389.0"/>
      <point x="74.0" y="-321.194029851"/>
      <point x="74" y="-260" type="qcurve" smooth="yes"/>
      <point x="74.0" y="-194.328358209"/>
      <point x="218.71641791" y="-55.223880597"/>
      <point x="362" y="0" type="qcurve"/>
      <point x="530" y="0" type="line"/>
      <point x="414.328358209" y="-70.1492537313"/>
      <point x="342.0" y="-163.417910448"/>
      <point x="342" y="-197" type="qcurve" smooth="yes"/>
      <point x="342.0" y="-219.388059701"/>
      <point x="383.970149254" y="-250.0"/>
      <point x="428" y="-250" type="qcurve" smooth="yes"/>
      <point x="466.059701493" y="-250.0"/>
      <point x="542.776119403" y="-241.179104478"/>
    </contour>
  </outline>
</glyph>
<glyph name="tilde" format="1">
  <advance width="1024.0"/>
  <unicode hex="02DC"/>
  <outline>
    <contour>
      <point x="954" y="1567" type="qcurve"/>
      <point x="1139" y="1567" type="line"/>
      <point x="1105.41791045" y="1381.92537313"/>
      <point x="957.164179104" y="1208.0"/>
      <point x="840" y="1208" type="qcurve" smooth="yes"/>
      <point x="732.537313433" y="1208.0"/>
      <point x="625.23880597" y="1311.0"/>
      <point x="573" y="1311" type="qcurve" smooth="yes"/>
      <point x="540.910447761" y="1311.0"/>
      <point x="499.179104478" y="1265.73134328"/>
      <point x="485" y="1212" type="qcurve"/>
      <point x="301" y="1212" type="line"/>
      <point x="334.582089552" y="1397.07462687"/>
      <point x="480.089552239" y="1571.0"/>
      <point x="598" y="1571" type="qcurve" smooth="yes"/>
      <point x="704.71641791" y="1571.0"/>
      <point x="814.507462687" y="1468.0"/>
      <point x="866" y="1468" type="qcurve" smooth="yes"/>
      <point x="898.089552239" y="1468.0"/>
      <point x="939.074626866" y="1513.26865672"/>
    </contour>
  </outline>
</glyph>
<glyph name="endash" format="1">
  <advance width="1024.0"/>
  <unicode hex="2013"/>
  <outline>
    <contour>
      <point x="115" y="770" type="line"/>
      <point x="1016" y="770" type="line"/>
      <point x="930" y="430" type="line"/>
      <point x="29" y="430" type="line"/>
    </contour>
  </outline>
</glyph>
<glyph name="emdash" format="1">
  <advance width="2048.0"/>
  <unicode hex="2014"/>
  <outline>
    <contour>
      <point x="115" y="770" type="line"/>
      <point x="2040" y="770" type="line"/>
      <point x="1954" y="430" type="line"/>
      <point x="29" y="430" type="line"/>
    </contour>
  </outline>
</glyph>
<glyph name="quoteleft" format="1">
  <advance width="548.864"/>
  <unicode hex="2018"/>
  <unicode hex="02BB"/>
  <outline>
    <contour>
      <point x="256" y="1475" type="line"/>
      <point x="684" y="1475" type="line"/>
      <point x="578" y="817" type="line"/>
      <point x="360" y="817" type="line"/>
    </contour>
  </outline>
</glyph>
<glyph name="quoteright" format="1">
  <advance width="548.864"/>
  <unicode hex="2019"/>
  <unicode hex="02BC"/>
  <outline>
    <contour>
      <point x="324" y="1475" type="line"/>
      <point x="768" y="1475" type="line"/>
      <point x="371" y="817" type="line"/>
      <point x="129" y="817" type="line"/>
    </contour>
  </outline>
</glyph>
<glyph name="quotedblleft" format="1">
  <advance width="1044.48"/>
  <unicode hex="201C"/>
  <outline>
    <contour>
      <point x="256" y="1475" type="line"/>
      <point x="674" y="1475" type="line"/>
      <point x="567" y="817" type="line"/>
      <point x="360" y="817" type="line"/>
    </contour>
    <contour>
      <point x="737" y="1475" type="line"/>
      <point x="1155" y="1475" type="line"/>
      <point x="1049" y="817" type="line"/>
      <point x="842" y="817" type="line"/>
    </contour>
  </outline>
</glyph>
<glyph name="quotedblbase" format="1">
  <advance width="1044.48"/>
  <unicode hex="201E"/>
  <outline>
    <contour>
      <point x="61" y="426" type="line"/>
      <point x="496" y="426" type="line"/>
      <point x="98" y="-231" type="line"/>
      <point x="-133" y="-231" type="line"/>
    </contour>
    <contour>
      <point x="567" y="426" type="line"/>
      <point x="1001" y="426" type="line"/>
      <point x="604" y="-231" type="line"/>
      <point x="373" y="-231" type="line"/>
    </contour>
  </outline>
</glyph>
<glyph name="daggerdbl" format="1">
  <advance width="1105.92"/>
  <unicode hex="2021"/>
  <outline>
    <contour>
      <point x="801" y="1112" type="line"/>
      <point x="1196" y="1208" type="line"/>
      <point x="1120" y="899" type="line"/>
      <point x="770" y="993" type="line"/>
      <point x="805" y="737" type="line"/>
      <point x="643" y="481" type="line"/>
      <point x="1038" y="575" type="line"/>
      <point x="963" y="266" type="line"/>
      <point x="612" y="362" type="line"/>
      <point x="629" y="0" type="line"/>
      <point x="199" y="0" type="line"/>
      <point x="395" y="362" type="line"/>
      <point x="0" y="266" type="line"/>
      <point x="76" y="575" type="line"/>
      <point x="426" y="481" type="line"/>
      <point x="389" y="737" type="line"/>
      <point x="553" y="993" type="line"/>
      <point x="158" y="899" type="line"/>
      <point x="233" y="1208" type="line"/>
      <point x="584" y="1112" type="line"/>
      <point x="567" y="1475" type="line"/>
      <point x="997" y="1475" type="line"/>
    </contour>
  </outline>
</glyph>
<glyph name="ellipsis" format="1">
  <advance width="1630.208"/>
  <unicode hex="2026"/>
  <outline>
    <contour>
      <point x="184" y="416" type="qcurve" smooth="yes"/>
      <point x="275.791044776" y="416.0"/>
      <point x="399.0" y="292.791044776"/>
      <point x="399" y="201" type="qcurve" smooth="yes"/>
      <point x="399.0" y="109.208955224"/>
      <point x="275.791044776" y="-14.0"/>
      <point x="184" y="-14" type="qcurve" smooth="yes"/>
      <point x="92.2089552239" y="-14.0"/>
      <point x="-31.0" y="109.208955224"/>
      <point x="-31" y="201" type="qcurve" smooth="yes"/>
      <point x="-31.0" y="292.791044776"/>
      <point x="92.2089552239" y="416.0"/>
    </contour>
    <contour>
      <point x="733" y="416" type="qcurve" smooth="yes"/>
      <point x="824.791044776" y="416.0"/>
      <point x="948.0" y="292.791044776"/>
      <point x="948" y="201" type="qcurve" smooth="yes"/>
      <point x="948.0" y="109.208955224"/>
      <point x="824.791044776" y="-14.0"/>
      <point x="733" y="-14" type="qcurve" smooth="yes"/>
      <point x="641.208955224" y="-14.0"/>
      <point x="518.0" y="109.208955224"/>
      <point x="518" y="201" type="qcurve" smooth="yes"/>
      <point x="518.0" y="292.791044776"/>
      <point x="641.208955224" y="416.0"/>
    </contour>
    <contour>
      <point x="1282" y="416" type="qcurve" smooth="yes"/>
      <point x="1373.79104478" y="416.0"/>
      <point x="1497.0" y="292.791044776"/>
      <point x="1497" y="201" type="qcurve" smooth="yes"/>
      <point x="1497.0" y="109.208955224"/>
      <point x="1373.79104478" y="-14.0"/>
      <point x="1282" y="-14" type="qcurve" smooth="yes"/>
      <point x="1190.20895522" y="-14.0"/>
      <point x="1067.0" y="109.208955224"/>
      <point x="1067" y="201" type="qcurve" smooth="yes"/>
      <point x="1067.0" y="292.791044776"/>
      <point x="1190.20895522" y="416.0"/>
    </contour>
  </outline>
</glyph>
<glyph name="guilsinglright" format="1">
  <advance width="622.592"/>
  <unicode hex="203A"/>
  <outline>
    <contour>
      <point x="354" y="977" type="line"/>
      <point x="602" y="555" type="line"/>
      <point x="174" y="133" type="line"/>
      <point x="-53" y="133" type="line"/>
      <point x="188" y="555" type="line"/>
      <point x="156" y="977" type="line"/>
    </contour>
  </outline>
</glyph>
<glyph name="fraction" format="1">
  <advance width="860.16"/>
  <unicode hex="2044"/>
  <outline>
    <contour>
      <point x="836" y="1505" type="line"/>
      <point x="1217" y="1505" type="line"/>
      <point x="111" y="-31" type="line"/>
      <point x="-270" y="-31" type="line"/>
    </contour>
  </outline>
</glyph>
<glyph name="radical" format="1">
  <advance width="1286.144"/>
  <unicode hex="221A"/>
  <outline>
    <contour>
      <point x="1006" y="1475" type="line"/>
      <point x="1481" y="1475" type="line"/>
      <point x="688" y="-8" type="line"/>
      <point x="231" y="-8" type="line"/>
      <point x="63" y="696" type="line"/>
      <point x="477" y="696" type="line"/>
      <point x="524" y="328" type="line"/>
    </contour>
  </outline>
</glyph>
<glyph name="apple" format="1">
  <advance width="1024.0"/>
  <unicode hex="F8FF"/>
  <outline>
    <contour>
      <point x="1065" y="1372" type="line"/>
      <point x="1096" y="1008" type="line"/>
      <point x="739" y="1020" type="line"/>
      <point x="1018" y="748" type="line"/>
      <point x="1014" y="727" type="line"/>
      <point x="600" y="455" type="line"/>
      <point x="961" y="467" type="line"/>
      <point x="750" y="102" type="line"/>
      <point x="524" y="326" type="line"/>
      <point x="567" y="0" type="line"/>
      <point x="178" y="0" type="line"/>
      <point x="385" y="326" type="line"/>
      <point x="49" y="102" type="line"/>
      <point x="18" y="467" type="line"/>
      <point x="375" y="455" type="line"/>
      <point x="96" y="727" type="line"/>
      <point x="100" y="748" type="line"/>
      <point x="514" y="1020" type="line"/>
      <point x="154" y="1008" type="line"/>
      <point x="365" y="1372" type="line"/>
      <point x="590" y="1149" type="line"/>
      <point x="547" y="1475" type="line"/>
      <point x="936" y="1475" type="line"/>
      <point x="729" y="1149" type="line"/>
    </contour>
    <contour>
      <point x="496" y="487" type="line"/>
      <point x="682" y="737" type="line"/>
      <point x="618" y="987" type="line"/>
      <point x="432" y="737" type="line"/>
    </contour>
  </outline>
</glyph>
<glyph name="fl" format="1">
  <advance width="1454.08"/>
  <unicode hex="FB02"/>
  <outline>
    <contour>
      <point x="856" y="1554" type="qcurve" smooth="yes"/>
      <point x="937.343283582" y="1554.0"/>
      <point x="1052.26865672" y="1543.94029851"/>
      <point x="1106" y="1532" type="qcurve"/>
      <point x="1038" y="1266" type="line"/>
      <point x="1014.11940299" y="1271.97014925"/>
      <point x="961.582089552" y="1278.0"/>
      <point x="928" y="1278" type="qcurve" smooth="yes"/>
      <point x="859.343283582" y="1278.0"/>
      <point x="775.910447761" y="1218.64179104"/>
      <point x="758" y="1147" type="qcurve" smooth="yes"/>
      <point x="748" y="1106" type="line"/>
      <point x="999" y="1106" type="line"/>
      <point x="932" y="831" type="line"/>
      <point x="680" y="831" type="line"/>
      <point x="473" y="0" type="line"/>
      <point x="63" y="0" type="line"/>
      <point x="270" y="831" type="line"/>
      <point x="88" y="831" type="line"/>
      <point x="156" y="1106" type="line"/>
      <point x="338" y="1106" type="line"/>
      <point x="362" y="1198" type="line" smooth="yes"/>
      <point x="414.23880597" y="1393.52238806"/>
      <point x="637.343283582" y="1554.0"/>
    </contour>
    <contour>
      <point x="1188" y="1495" type="line"/>
      <point x="1616" y="1544" type="line"/>
      <point x="1233" y="0" type="line"/>
      <point x="815" y="0" type="line"/>
    </contour>
  </outline>
</glyph>
<glyph name="bullet" format="1">
  <advance width="962.56"/>
  <outline>
    <contour>
      <point x="532" y="1188" type="qcurve" smooth="yes"/>
      <point x="709.611940299" y="1188.0"/>
      <point x="956.0" y="940.865671642"/>
      <point x="956" y="764" type="qcurve" smooth="yes"/>
      <point x="956.0" y="586.388059701"/>
      <point x="709.611940299" y="340.0"/>
      <point x="532" y="340" type="qcurve" smooth="yes"/>
      <point x="355.134328358" y="340.0"/>
      <point x="109.0" y="586.388059701"/>
      <point x="109" y="764" type="qcurve" smooth="yes"/>
      <point x="109.0" y="940.865671642"/>
      <point x="355.134328358" y="1188.0"/>
    </contour>
  </outline>
</glyph>
<glyph name="macron" format="1">
  <advance width="1024.0"/>
  <outline>
    <contour>
      <point x="426" y="1495" type="line"/>
      <point x="1065" y="1495" type="line"/>
      <point x="1008" y="1266" type="line"/>
      <point x="369" y="1266" type="line"/>
    </contour>
  </outline>
</glyph>
<glyph name="registered" format="1">
  <advance width="1028.096"/>
  <outline>
    <contour>
      <point x="762" y="999" type="qcurve"/>
      <point x="877" y="776" type="line"/>
      <point x="709" y="776" type="line"/>
      <point x="612" y="975" type="line"/>
      <point x="598" y="975" type="line"/>
      <point x="598" y="776" type="line"/>
      <point x="438" y="776" type="line"/>
      <point x="438" y="1307" type="line"/>
      <point x="649" y="1307" type="line" smooth="yes"/>
      <point x="739.298507463" y="1307.0"/>
      <point x="850.0" y="1226.58208955"/>
      <point x="850" y="1143" type="qcurve" smooth="yes"/>
      <point x="850.0" y="1093.74626866"/>
      <point x="804.537313433" y="1020.64179104"/>
    </contour>
    <contour>
      <point x="635" y="1489" type="qcurve" smooth="yes"/>
      <point x="830.52238806" y="1489.0"/>
      <point x="1090.0" y="1229.01492537"/>
      <point x="1090" y="1032" type="qcurve" smooth="yes"/>
      <point x="1090.0" y="836.47761194"/>
      <point x="828.014925373" y="573.0"/>
      <point x="631" y="573" type="qcurve" smooth="yes"/>
      <point x="435.47761194" y="573.0"/>
      <point x="176.0" y="832.985074627"/>
      <point x="176" y="1030" type="qcurve" smooth="yes"/>
      <point x="176.0" y="1225.52238806"/>
      <point x="437.985074627" y="1489.0"/>
    </contour>
    <contour>
      <point x="635" y="625" type="qcurve" smooth="yes"/>
      <point x="810.373134328" y="625.0"/>
      <point x="1030.0" y="854.626865672"/>
      <point x="1030" y="1030" type="qcurve" smooth="yes"/>
      <point x="1030.0" y="1206.11940299"/>
      <point x="807.865671642" y="1438.0"/>
      <point x="631" y="1438" type="qcurve" smooth="yes"/>
      <point x="454.880597015" y="1438.0"/>
      <point x="236.0" y="1208.11940299"/>
      <point x="236" y="1032" type="qcurve" smooth="yes"/>
      <point x="236.0" y="856.626865672"/>
      <point x="457.388059701" y="625.0"/>
    </contour>
    <contour>
      <point x="629" y="1073" type="line" smooth="yes"/>
      <point x="662.582089552" y="1073.0"/>
      <point x="696.0" y="1108.91044776"/>
      <point x="696" y="1141" type="qcurve" smooth="yes"/>
      <point x="696.0" y="1171.59701493"/>
      <point x="661.089552239" y="1202.0"/>
      <point x="629" y="1202" type="qcurve" smooth="yes"/>
      <point x="586" y="1202" type="line"/>
      <point x="586" y="1073" type="line"/>
    </contour>
  </outline>
</glyph>
